<svg width="272" height="54" viewBox="0 0 272 54" fill="none" xmlns="http://www.w3.org/2000/svg">
<path d="M28.305 4.90252C28.0098 4.75494 27.8622 4.68115 27.7074 4.6521C27.5703 4.62638 27.4297 4.62638 27.2925 4.6521C27.1378 4.68115 26.9902 4.75494 26.695 4.90252L5 15.75L26.695 26.5975C26.9902 26.7451 27.1378 26.8189 27.2925 26.8479C27.4297 26.8737 27.5703 26.8737 27.7074 26.8479C27.8622 26.8189 28.0098 26.7451 28.305 26.5975L50 15.75L28.305 4.90252Z" fill="#58B32B"/>
<path d="M16.25 21.375L5 27L26.695 37.8475C26.9902 37.9951 27.1378 38.0689 27.2926 38.0979C27.4297 38.1237 27.5703 38.1237 27.7074 38.0979C27.8622 38.0689 28.0098 37.9951 28.305 37.8475L50 27L38.75 21.375M16.25 32.625L5 38.25L26.695 49.0975C26.9902 49.2451 27.1378 49.3189 27.2926 49.3479C27.4297 49.3737 27.5703 49.3737 27.7074 49.3479C27.8622 49.3189 28.0098 49.2451 28.305 49.0975L50 38.25L38.75 32.625M5 15.75L26.695 4.90252C26.9902 4.75494 27.1378 4.68115 27.2926 4.6521C27.4297 4.62638 27.5703 4.62638 27.7074 4.6521C27.8622 4.68115 28.0098 4.75494 28.305 4.90252L50 15.75L28.305 26.5975C28.0098 26.7451 27.8622 26.8189 27.7074 26.8479C27.5703 26.8737 27.4297 26.8737 27.2926 26.8479C27.1378 26.8189 26.9902 26.7451 26.695 26.5975L5 15.75Z" stroke="#58B32B" stroke-width="4" stroke-linecap="round" stroke-linejoin="round"/>
<path d="M87.172 45L84.484 36.456H72.58L69.94 45H63.508L74.74 11.496H82.612L93.748 45H87.172ZM78.628 17.256H78.388L74.116 31.032H82.948L78.628 17.256ZM98.686 11.496H110.878C113.054 11.496 115.022 11.848 116.782 12.552C118.574 13.256 120.094 14.312 121.342 15.72C122.622 17.096 123.598 18.84 124.27 20.952C124.974 23.032 125.326 25.464 125.326 28.248C125.326 31.032 124.974 33.48 124.27 35.592C123.598 37.672 122.622 39.416 121.342 40.824C120.094 42.2 118.574 43.24 116.782 43.944C115.022 44.648 113.054 45 110.878 45H98.686V11.496ZM110.878 39.384C113.246 39.384 115.118 38.696 116.494 37.32C117.902 35.912 118.606 33.768 118.606 30.888V25.608C118.606 22.728 117.902 20.6 116.494 19.224C115.118 17.816 113.246 17.112 110.878 17.112H105.022V39.384H110.878ZM138.116 45H131.78V11.496H146.9C148.436 11.496 149.812 11.736 151.028 12.216C152.244 12.696 153.268 13.4 154.1 14.328C154.964 15.224 155.62 16.312 156.068 17.592C156.548 18.872 156.788 20.296 156.788 21.864C156.788 24.168 156.26 26.152 155.204 27.816C154.18 29.48 152.628 30.664 150.548 31.368L157.412 45H150.356L144.116 32.088H138.116V45ZM146.276 26.76C147.492 26.76 148.452 26.44 149.156 25.8C149.86 25.128 150.212 24.184 150.212 22.968V20.76C150.212 19.544 149.86 18.616 149.156 17.976C148.452 17.336 147.492 17.016 146.276 17.016H138.116V26.76H146.276ZM162.263 45V39.912H166.679V16.584H162.263V11.496H177.479V16.584H173.015V39.912H177.479V45H162.263ZM191.728 45L180.784 11.496H187.264L192.4 27.816L195.376 38.952H195.52L198.448 27.816L203.584 11.496H209.872L198.928 45H191.728ZM214.561 45V11.496H236.641V17.112H220.897V25.224H234.817V30.84H220.897V39.384H236.641V45H214.561ZM249.678 45H243.342V11.496H258.462C259.998 11.496 261.374 11.736 262.59 12.216C263.806 12.696 264.83 13.4 265.662 14.328C266.526 15.224 267.182 16.312 267.63 17.592C268.11 18.872 268.35 20.296 268.35 21.864C268.35 24.168 267.822 26.152 266.766 27.816C265.742 29.48 264.19 30.664 262.11 31.368L268.974 45H261.918L255.678 32.088H249.678V45ZM257.838 26.76C259.054 26.76 260.014 26.44 260.718 25.8C261.422 25.128 261.774 24.184 261.774 22.968V20.76C261.774 19.544 261.422 18.616 260.718 17.976C260.014 17.336 259.054 17.016 257.838 17.016H249.678V26.76H257.838Z" fill="#58B32B"/>
</svg>
