<svg width="1000" height="1000" viewBox="0 0 1000 1000" fill="none" xmlns="http://www.w3.org/2000/svg">
<path d="M672.501 717.334C687.001 717.334 692.835 723.667 679.501 726.167C666.168 728.667 659.168 732.001 672.001 733.334C684.835 734.667 751.168 732.001 758.835 740.501C766.335 749.001 573.668 750.167 532.168 750.167C490.668 750.167 439.168 750.001 388.335 743.334C360.668 739.667 346.168 724.667 366.668 722.001C416.668 715.167 657.835 717.334 672.501 717.334Z" fill="#C5DFFF"/>
<path d="M357.501 748.001C364.501 748.001 367.167 755.334 360.834 758.168C354.501 761.001 310.334 785.834 290.667 785.834C271.001 785.834 270.667 783.001 265.334 777.501C260.001 772.168 235.834 767.334 222.501 766.834C209.167 766.334 202.001 756.334 211.667 753.168C235.667 745.501 350.501 748.001 357.501 748.001Z" fill="#C5DFFF"/>
<path d="M803.333 751.167C806 751.333 809.667 755.167 808.333 759C804.667 768.833 793.5 774.667 776.833 774C750.667 773 749.667 756 761.5 753C771.667 750.166 800.667 751 803.333 751.167Z" fill="#C5DFFF"/>
<path d="M368.832 744.833L280.499 781.499C280.499 781.499 261.499 780.499 238.499 768.833C221.832 760.333 203.332 735.666 203.332 735.666L212.999 734.166L310.832 718.166C310.832 718.166 314.665 723.499 326.999 732.833C328.665 734.166 330.832 735.333 333.165 736.499C346.999 742.666 368.832 744.833 368.832 744.833Z" fill="#9BD180"/>
<path d="M368.833 744.833L342.833 755.666L280.333 781.499C280.333 781.499 261.333 780.499 238.333 768.833C231.333 765.333 223.999 758.833 217.833 752.499C209.333 743.833 203.166 735.666 203.166 735.666L212.833 734.166C224.666 738.166 243.333 742.666 266.999 742.999C295.833 743.499 320.166 739.166 332.999 736.333C346.999 742.666 368.833 744.833 368.833 744.833Z" fill="#79C255"/>
<path d="M343 755.499L280.5 781.332C280.5 781.332 261.5 780.332 238.5 768.665C231.5 765.165 224.167 758.665 218 752.332C232.833 755.665 253.333 758.999 278.167 759.332C303.5 759.832 326.167 757.832 343 755.499Z" fill="#58B32B"/>
<path d="M283.832 775.999C283.165 777.333 280.665 778.333 278.332 778.333C275.999 778.333 274.832 777.333 275.499 775.999C276.165 774.666 278.665 773.666 280.999 773.666C283.332 773.666 284.499 774.833 283.832 775.999Z" fill="#9BD180"/>
<path d="M357.5 746.833C356.833 748.167 354.333 749.167 352 749.167C349.667 749.167 348.5 748.167 349.167 746.833C349.833 745.5 352.333 744.5 354.667 744.5C357 744.667 358.167 745.667 357.5 746.833Z" fill="#9BD180"/>
<path d="M311.332 723.332C310.499 724.499 307.999 725.332 305.666 724.999C303.332 724.832 302.166 723.665 302.999 722.499C303.832 721.332 306.332 720.499 308.666 720.832C311.166 720.999 312.332 722.165 311.332 723.332Z" fill="#79C255"/>
<path d="M217.666 738.999C216.833 740.165 214.166 740.832 211.999 740.499C209.666 740.165 208.666 738.999 209.499 737.832C210.333 736.665 212.999 735.999 215.166 736.332C217.499 736.665 218.499 737.832 217.666 738.999Z" fill="#9BD180"/>
<path d="M801.667 743.167L783.667 741.334L768.834 751.001L777.667 762.334L796.167 763.501L807.501 753.501L801.667 743.167ZM788.834 757.001C786.001 757.001 783.667 756.001 782.001 754.667C783.501 753.001 786.334 751.834 789.667 751.834C792.501 751.834 794.834 752.834 796.501 754.167C795.167 755.834 792.167 757.001 788.834 757.001Z" fill="#9BD180"/>
<path d="M768.834 750.834L770.334 763.334L778.001 771.001L777.501 762.167L768.834 750.834Z" fill="#58B32B"/>
<path d="M778 771.001L796.167 772.168L796 763.335L777.5 762.168L778 771.001Z" fill="#79C255"/>
<path d="M807.333 753.334L806.833 761.834L796.167 772.167L796 763.334L807.333 753.334Z" fill="#DEF0D5"/>
<path d="M797.667 751.667C797.667 752.667 797.333 753.501 796.667 754.167C795.167 752.834 792.667 751.834 789.833 751.834C786.5 751.834 783.667 752.834 782.167 754.667C781 753.667 780.333 752.501 780.5 751.167C780.5 748.167 784.5 745.667 789.333 745.834C793.833 746.001 797.667 748.501 797.667 751.667Z" fill="#58B32B"/>
<path d="M402.665 804.334C389.165 809.834 376.165 803.001 376.165 803.001L299.499 840.334C299.332 843.001 297.665 860.668 276.832 865.168C257.832 869.168 250.165 858.001 250.165 858.001L254.165 855.668L274.332 843.834L267.665 836.334L242.999 848.001C242.999 848.001 241.832 845.334 241.832 841.501C241.832 839.834 241.999 837.834 242.665 835.834C244.832 829.501 252.499 820.001 265.999 817.834C279.499 815.668 285.999 821.001 285.999 821.001L367.832 786.168C367.832 786.168 367.999 781.334 371.832 777.501C375.499 773.501 382.165 768.168 391.332 769.001C396.499 769.334 400.332 771.001 402.499 772.334C404.332 773.334 405.165 774.168 405.165 774.168L384.832 785.168L392.165 793.334L410.999 783.501C410.999 783.501 412.499 784.334 413.665 787.001C413.832 787.501 413.999 788.001 414.165 788.501C415.499 792.501 416.165 798.834 402.665 804.334Z" fill="#D2E9FF"/>
<path d="M401.999 806.502C388.499 812.002 376.166 803.169 376.166 803.169L299.499 840.502C299.333 843.169 297.666 860.835 276.833 865.335C257.833 869.335 250.166 858.169 250.166 858.169L254.166 855.835C257.833 858.335 266.499 862.502 279.499 858.002C297.166 851.835 295.499 835.002 295.499 835.002L376.666 797.835C376.666 797.835 388.333 806.835 402.999 799.669C411.666 795.502 413.833 790.335 413.999 787.002C414.166 787.502 414.333 788.002 414.499 788.502C415.499 792.502 415.499 800.835 401.999 806.502Z" fill="#AED8FC"/>
<path d="M276.833 842.001L274.166 844.167L267.499 836.667L242.833 848.334C242.833 848.334 241.666 845.667 241.666 841.834L267.833 831.334L276.833 842.001Z" fill="#AED8FC"/>
<path d="M405.333 774.333L384.999 785.333L383.666 782.667L402.666 772.5C404.333 773.333 405.333 774.333 405.333 774.333Z" fill="#AED8FC"/>
<path d="M462.166 791.166C461.333 795.166 459.5 798 456.5 799.166C455.333 799.666 453.833 800 452.333 799.833C447.166 799.333 444.166 793.5 445.5 783.666C446.833 773.833 452.666 771.833 456.833 772.666C457.166 772.833 457.5 772.833 457.833 773C462.666 775.333 463.166 785.833 462.166 791.166Z" fill="#9BD180"/>
<path d="M462.166 791.167C461.333 795.167 459.499 798 456.499 799.167C451.333 798.5 449.499 792 450.666 783.5C451.499 777.5 453.166 774.167 457.833 773C462.666 775.333 463.166 785.833 462.166 791.167Z" fill="#58B32B"/>
<path d="M493.5 787.501C493.666 788.334 493.333 789.167 493 789.834C492.166 791.667 490.5 793.001 490.5 793.001L455.666 791.501C455.666 791.501 451.166 785.667 457 781.334H458.5L491.5 782.501C491.5 782.667 493.166 784.501 493.5 787.501Z" fill="#9BD180"/>
<path d="M493 790C492.166 791.833 490.5 793.167 490.5 793.167L455.666 791.667C455.666 791.667 451.166 785.833 457 781.5H458.5C458.333 782.5 458.333 785 460.833 786.833C463.166 788.667 483.166 789.667 493 790Z" fill="#58B32B"/>
<path d="M587.666 802.501C586.499 802.501 585.166 802.167 583.999 801.667C579.999 799.834 576.999 789.167 576.999 780.834C576.999 776.334 577.666 772.334 578.999 769.167C577.499 769.001 575.999 769.167 574.499 769.667C564.499 773.001 566.666 786.834 566.666 786.834C566.832 788.001 565.999 789.167 564.832 789.334C563.666 789.501 562.499 788.667 562.332 787.501C561.332 781.501 562.332 769.167 572.999 765.501C575.832 764.501 578.666 764.334 581.166 765.001C582.666 763.001 584.499 761.501 586.666 760.501C592.499 757.667 597.999 757.167 602.832 759.001C604.499 756.334 606.666 754.334 609.166 753.334C613.666 751.501 617.999 751.501 621.832 753.334C628.666 756.501 631.999 764.001 632.999 767.167C635.666 774.667 634.499 781.167 634.499 781.501C634.332 782.667 633.166 783.501 631.999 783.167C630.832 783.001 629.999 781.834 630.332 780.667C630.332 780.667 631.332 775.001 628.999 768.501C628.332 766.501 625.499 759.667 620.166 757.167C617.332 755.834 614.332 756.001 610.832 757.334C608.999 758.001 607.666 759.334 606.666 761.001C610.999 763.834 614.332 768.834 616.332 775.001C618.666 782.501 617.666 789.501 613.832 792.167C611.332 793.834 608.332 793.501 605.499 791.167C600.999 787.501 598.499 776.501 599.999 767.167C600.166 765.667 600.666 764.167 600.999 762.834C597.332 761.667 593.166 762.167 588.499 764.334C587.166 765.001 586.166 765.834 585.166 766.834C590.166 770.334 593.832 777.834 594.999 787.167C595.999 795.667 593.666 799.501 591.499 801.001C590.499 802.167 589.166 802.501 587.666 802.501ZM582.999 770.667C581.832 773.334 581.332 776.334 581.332 778.834C580.832 788.334 584.332 796.834 585.832 797.667C586.499 798.001 587.999 798.501 589.166 797.667C590.832 796.334 591.499 792.667 590.999 787.834C590.166 781.667 587.666 774.001 582.999 770.667ZM604.999 765.167C604.666 766.167 604.499 767.334 604.332 768.167C602.999 776.334 605.499 785.834 608.332 788.167C609.666 789.167 610.666 789.501 611.499 789.001C613.166 787.834 614.499 783.334 612.332 776.667C610.832 771.501 608.166 767.501 604.999 765.167Z" fill="#1C3177"/>
<path d="M543.333 866.167C543.333 866.834 543.333 867.501 543.167 868.001C541.833 873.334 538.167 872.334 534 871.001C529.833 869.501 507.333 855.334 502.333 852.334C497.333 849.334 493 847.501 493 847.501L495.667 841.834L499.5 833.334C499.5 833.334 521.333 843.001 530.5 849.334C538.667 855.001 543.333 861.167 543.333 866.167Z" fill="#1C3177"/>
<path d="M543.333 866.167C543.333 866.834 543.333 867.501 543.167 868.001C541.833 873.334 538.167 872.334 534 871.001C529.833 869.501 507.333 855.334 502.333 852.334C497.333 849.334 493 847.501 493 847.501L495.667 841.834C503.5 846.667 521.5 854.001 535 862.667C538 864.501 541.667 866.334 543.333 866.167Z" fill="#0E2566"/>
<path d="M546.501 884.333C546.501 885 546.501 885.667 546.334 886.167C545.001 891.5 541.334 890.5 537.167 889.167C533.001 887.667 498.167 866.5 493.167 863.5C488.167 860.5 483.834 858.667 483.834 858.667L486.501 853L490.334 844.5C490.334 844.5 524.501 861 533.667 867.5C541.667 873.167 546.334 879.333 546.501 884.333Z" fill="#1C3177"/>
<path d="M546.501 884.333C546.501 885 546.501 885.667 546.334 886.167C545.001 891.5 541.334 890.5 537.167 889.167C533.001 887.667 498.167 866.5 493.167 863.5C488.167 860.5 483.834 858.667 483.834 858.667L486.501 853C494.334 857.833 534.167 881.5 540.334 883.667C542.667 884.333 544.667 884.5 546.501 884.333Z" fill="#0E2566"/>
<path d="M536.501 895.833C536.501 896.5 536.501 897.167 536.334 897.667C535.001 903 531.334 902 527.167 900.667C523.001 899.167 488.167 878 483.167 875C478.167 872 473.834 870.167 473.834 870.167L476.501 864.5L480.334 856C480.334 856 513.667 874.333 522.667 880.833C531.001 886.5 536.501 890.833 536.501 895.833Z" fill="#1C3177"/>
<path d="M536.501 895.833C536.501 896.5 536.501 897.167 536.334 897.667C535.001 903 531.334 902 527.167 900.667C523.001 899.167 488.167 878 483.167 875C478.167 872 473.834 870.167 473.834 870.167L476.501 864.5C484.334 869.333 524.167 893 530.334 895.167C532.834 895.833 534.834 896 536.501 895.833Z" fill="#0E2566"/>
<path d="M518.333 898.501C518.333 899.167 518.333 899.834 518.333 900.334C517.333 905.834 513.667 905.001 509.5 904.001C505.333 902.834 468.833 884.334 463.667 881.834C458.5 879.167 454 877.667 454 877.667L456.167 871.834L461.667 861.834C461.667 861.834 494.5 879.834 504.167 885.501C512.5 890.667 518 893.501 518.333 898.501Z" fill="#1C3177"/>
<path d="M518.333 898.501C518.333 899.167 518.333 899.834 518.333 900.334C517.333 905.834 513.667 905.001 509.5 904.001C505.333 902.834 468.833 884.334 463.667 881.834C458.5 879.167 454 877.667 454 877.667L459 869.334C467.167 873.501 505.833 896.667 512.167 898.334C514.667 898.834 516.667 898.834 518.333 898.501Z" fill="#0E2566"/>
<path d="M499.666 833.333C499.666 833.333 495.666 845.5 486.499 859C482.999 864.167 479.833 868.833 477.166 872.667C475.833 874.5 474.666 876.167 473.666 877.667C470.666 881.833 468.833 884.333 468.833 884.333C468.833 884.333 456.499 880.667 443.666 873.167C430.833 865.667 419.833 857 416.999 853.5C413.499 849.333 414.999 843.333 414.999 843.333C414.999 843.333 415.166 841.833 416.333 839.333C417.666 836.5 420.166 832.5 424.999 828C434.333 819.5 443.166 816.5 443.166 816.5L499.666 833.333Z" fill="#1C3177"/>
<path d="M473.666 877.499C470.666 881.666 468.833 884.166 468.833 884.166C468.833 884.166 456.499 880.499 443.666 872.999C430.833 865.499 419.833 856.833 416.999 853.333C413.499 849.166 414.999 843.166 414.999 843.166C414.999 843.166 415.166 841.666 416.333 839.166C426.499 850.499 435.833 856.999 454.333 867.499C459.999 870.833 468.833 875.333 473.666 877.499Z" fill="#0E2566"/>
<path d="M778.334 827.668L625.834 900.668C625.834 900.668 612.5 904.001 601.5 894.834C599.334 893.168 597.334 891.001 595.5 888.168C590.167 880.001 588.834 872.834 589.167 867.334C589.5 861.334 591.5 857.501 591.5 857.501L752.834 785.501C752.834 785.501 761.167 785.001 768.5 789.501C771.334 791.334 774 793.834 776 797.501C778.334 801.668 779.334 806.168 779.667 810.501C780.667 819.834 778.334 827.668 778.334 827.668Z" fill="#79C255"/>
<path d="M778.333 827.668L625.833 900.668C625.833 900.668 612.5 904.001 601.5 894.835L779.833 810.668C780.667 819.835 778.333 827.668 778.333 827.668Z" fill="#58B32B"/>
<path d="M768.666 789.667L589.166 867.333C589.499 861.333 591.499 857.5 591.499 857.5L752.833 785.5C752.999 785.667 761.333 785.167 768.666 789.667Z" fill="#9BD180"/>
<path d="M591.5 857.667C591.5 857.667 608.666 847.334 621 865.5C636 887.667 625.666 900.834 625.666 900.834C625.666 900.834 606.5 907.667 595.333 892.667C584.5 877.667 586.166 865.5 591.5 857.667Z" fill="#58B32B"/>
<path d="M666.833 880.835C666.666 880.835 666.333 880.835 666.166 880.668C664.499 880.335 663.333 878.502 663.833 876.835C663.833 876.668 666.499 864.668 658.833 853.002C651.333 841.835 642.499 843.002 642.499 843.002C640.833 843.335 639.166 842.002 638.833 840.335C638.499 838.668 639.833 837.002 641.499 836.668C641.999 836.668 654.499 834.835 664.166 849.335C673.499 863.335 670.333 877.668 670.166 878.168C669.666 879.835 668.333 880.835 666.833 880.835Z" fill="#58B32B"/>
<path d="M710.499 858.168C710.332 858.168 709.999 858.167 709.832 858.001C708.165 857.667 706.999 855.834 707.499 854.168C707.499 854.001 709.999 842.668 702.832 831.668C695.999 821.334 687.999 822.334 687.665 822.334C685.999 822.501 684.332 821.334 683.999 819.667C683.665 818.001 684.999 816.334 686.665 816.001C687.165 816.001 698.832 814.167 708.165 828.167C716.999 841.501 713.832 855.168 713.832 855.668C713.165 857.168 711.832 858.168 710.499 858.168Z" fill="#58B32B"/>
<path d="M751.999 839.335C751.832 839.335 751.499 839.335 751.332 839.168C749.665 838.835 748.499 837.002 748.999 835.335C748.999 835.168 751.499 823.835 744.332 812.835C737.499 802.335 729.665 803.502 729.499 803.502C727.832 803.835 726.165 802.668 725.832 800.835C725.499 799.168 726.665 797.502 728.499 797.168C728.999 797.168 740.665 795.502 749.665 809.335C758.332 822.668 755.332 836.168 755.165 836.835C754.832 838.335 753.499 839.335 751.999 839.335Z" fill="#58B32B"/>
<path d="M687.334 646.001C675.334 668.834 656.667 685.667 644.167 686.001C634.834 686.167 631.834 682.667 633.334 672.501C633.834 669.167 634.834 665.167 636.167 660.167C641.834 640.334 652 622.001 657.834 612.501C666.5 598.667 681.334 601.001 688.834 606.834C690 607.667 691 608.667 691.834 609.667C698.167 616.667 697.667 626.001 687.334 646.001Z" fill="#1C3177"/>
<path d="M687.334 646.001C675.334 668.835 656.667 685.668 644.167 686.001C634.834 686.168 631.834 682.668 633.334 672.501C635.5 675.168 639.167 677.335 645 676.168C657.334 673.668 679.5 650.668 687.667 629.168C691 620.335 692 614.001 692 609.668C698.167 616.668 697.667 626.001 687.334 646.001Z" fill="#0E2566"/>
<path d="M683 616.167C683.5 623.5 676.833 635 666.833 643C656.833 651 650.5 645.167 654.5 632C658.667 618.833 668.333 607 675 607C679.333 607 682.5 610.167 683 616.167Z" fill="#0E2566"/>
<path d="M673.834 628.501C672.667 630.667 671.167 632.334 669.667 633.667C664.834 638.001 659.334 639.001 659.334 639.001C659.334 639.001 618.667 628.334 571.167 576.001C544.834 547.001 532.001 523.501 525.667 508.167C520.501 495.834 519.834 488.834 519.834 488.834C519.834 488.834 520.167 484.334 524.834 479.834C527.667 477.001 532.334 474.001 539.501 472.001C543.501 470.834 547.167 470.501 550.167 470.667C561.667 471.167 566.167 478.667 566.167 478.667C566.167 478.667 567.667 483.167 570.501 490.167C577.667 508.001 593.834 542.334 618.001 565.001C652.001 596.501 674.667 608.501 674.667 608.501C674.667 608.501 675.834 611.834 676.167 616.334C676.667 620.167 676.167 624.501 673.834 628.501Z" fill="#79C255"/>
<path d="M669.667 633.667C664.833 638.001 659.333 639.001 659.333 639.001C659.333 639.001 618.667 628.334 571.167 576.001C523.667 523.667 520 488.834 520 488.834C520 488.834 520.333 484.334 525 479.834C533.167 500.667 556.333 551.334 602.333 587.834C635.5 614.001 657.167 627.167 669.667 633.667Z" fill="#58B32B"/>
<path d="M676.334 616.335C661.167 608.835 630.667 591.668 603.834 564.168C572.834 532.168 555.334 485.501 550.334 470.668C561.834 471.168 566.334 478.668 566.334 478.668C566.334 478.668 584.334 533.335 618.334 565.001C652.334 596.501 675.001 608.501 675.001 608.501C675.001 608.501 676.167 611.835 676.334 616.335Z" fill="#9BD180"/>
<path d="M570.667 490.167C568.167 491.834 565.501 493.667 562.667 495.334C546.334 505.001 533.501 507.667 525.667 508.167C520.501 495.834 519.834 488.834 519.834 488.834C519.834 488.834 520.167 484.334 524.834 479.834C527.667 477.001 532.334 474.001 539.501 472.001C543.501 470.834 547.167 470.501 550.167 470.667C561.667 471.167 566.167 478.667 566.167 478.667C566.167 478.667 567.834 483.001 570.667 490.167Z" fill="#58B32B"/>
<path d="M541.333 524.5C537.167 524.5 534.333 523.833 534.167 523.833C533 523.5 532.333 522.333 532.5 521.333C532.833 520.166 533.833 519.5 535 519.666C535.167 519.666 547.333 522.333 558.5 515.666C569.5 509 570.667 501.833 570.667 501.833C570.833 500.666 571.833 499.833 573 500C574.167 500.166 575 501.166 574.833 502.333C574.833 502.666 573.5 511.5 560.667 519.333C553.833 523.5 546.5 524.5 541.333 524.5Z" fill="#58B32B"/>
<path d="M567.833 568.167C565.666 568.167 564.333 567.834 564.166 567.834C562.999 567.501 562.333 566.334 562.666 565.167C562.999 564.001 564.166 563.334 565.333 563.667C565.666 563.834 573.499 565.667 583.999 557.167C593.666 549.334 593.833 542.334 593.833 542.001C593.833 540.834 594.833 539.834 595.999 539.834C597.166 539.834 598.166 540.834 598.166 542.001C598.166 542.334 597.999 551.334 586.666 560.501C578.833 567.001 571.833 568.167 567.833 568.167Z" fill="#58B32B"/>
<path d="M592.667 596.166C591.333 596.166 590.5 595.166 590.5 593.999C590.5 592.832 591.5 591.832 592.667 591.832C593 591.832 603 591.832 610.333 584.499C617.5 577.332 616.5 569.332 616.5 568.999C616.333 567.832 617.167 566.832 618.333 566.666C619.5 566.499 620.5 567.332 620.667 568.499C620.667 568.999 622 578.999 613.333 587.666C605 595.999 594 596.166 592.667 596.166Z" fill="#58B32B"/>
<path d="M624.667 620.833C624.333 620.833 624.167 620.833 624 620.833C622.833 620.667 622 619.667 622 618.5C622.167 617.333 623.167 616.5 624.333 616.5C624.667 616.5 631.833 616.833 638.833 608.167C644.167 601.667 642.333 591.667 642.333 591.5C642.167 590.333 642.833 589.167 644 589C645.167 588.833 646.333 589.5 646.5 590.667C646.667 591.167 648.667 602.667 642.167 610.833C634.667 620.167 626.833 620.833 624.667 620.833Z" fill="#58B32B"/>
<path d="M480.166 728.666C471.499 731.332 443.833 732.499 421.499 732.166C401.166 731.832 391.999 728.499 399.166 720.832C399.833 719.999 400.833 719.166 401.999 718.332C413.833 708.832 442.333 700.832 455.833 699.832C468.499 698.832 479.666 697.332 481.999 701.999C483.499 704.999 485.166 710.832 485.499 716.332C485.833 721.999 484.666 727.332 480.166 728.666Z" fill="#1C3177"/>
<path d="M480.166 728.665C471.499 731.332 443.833 732.499 421.499 732.165C401.166 731.832 391.999 728.499 399.166 720.832C404.999 722.499 416.999 724.665 439.166 723.999C465.833 723.165 478.333 719.999 485.333 716.332C485.833 721.999 484.666 727.332 480.166 728.665Z" fill="#0E2566"/>
<path d="M448.166 701.167C434.666 702.833 421.999 711.667 438.666 712.667C458.499 713.833 482.333 704.833 480.333 701.833C478.333 698.667 462.499 699.333 448.166 701.167Z" fill="#0E2566"/>
<path d="M478.666 700.332C478.666 700.332 476.832 704.499 467.666 707.832C466.999 708.166 466.166 708.332 465.166 708.666C459.166 710.499 452.499 710.166 447.499 709.332C443.332 708.666 440.499 707.832 440.499 707.832C440.499 707.832 420.999 668.499 414.332 632.999C407.666 597.499 403.165 568.666 411.999 531.666C413.999 523.666 415.665 517.166 417.332 511.832C423.165 492.666 426.999 489.166 426.999 489.166C426.999 489.166 430.332 488.166 435.166 487.499C441.999 486.499 451.832 486.499 458.666 491.499C460.499 492.832 461.999 494.166 463.499 495.499C471.166 502.666 473.165 509.499 473.165 509.499C473.165 509.499 467.832 516.999 462.499 531.332C457.332 545.332 451.999 565.832 451.832 592.332C451.332 645.832 478.666 700.332 478.666 700.332Z" fill="#79C255"/>
<path d="M478.666 700.333C478.666 700.333 476.833 704.499 467.666 707.833C458.833 690.499 446.333 659.666 439.5 613.333C430.333 549.833 454.5 508.499 463.5 495.666C471.166 502.833 473.166 509.666 473.166 509.666C473.166 509.666 452.333 538.999 451.833 592.499C451.333 645.999 478.666 700.333 478.666 700.333Z" fill="#58B32B"/>
<path d="M447.665 709.333C443.498 708.667 440.665 707.833 440.665 707.833C440.665 707.833 421.165 668.5 414.498 633C407.832 597.5 403.332 568.667 412.165 531.667C420.998 494.833 427.165 489.167 427.165 489.167C427.165 489.167 430.498 488.167 435.332 487.5C428.998 500.667 414.165 537 417.165 584.833C420.165 633.167 439.832 688.833 447.665 709.333Z" fill="#9BD180"/>
<path d="M455.833 547.333C455.167 547.333 454.5 547 454.167 546.5C454.167 546.5 449.167 539.833 436.667 536.666C423.833 533.5 415.167 535.666 415.167 535.666C414 536 412.833 535.333 412.5 534.166C412.167 533 412.833 531.833 414 531.5C414.333 531.333 423.667 529 437.667 532.5C451.833 536 457.333 543.666 457.667 544C458.333 545 458.167 546.333 457.167 547C456.667 547.166 456.167 547.333 455.833 547.333Z" fill="#58B32B"/>
<path d="M449.833 591.332C449.333 591.332 448.666 591.165 448.333 590.665C448.333 590.665 442.666 585.165 430.666 584.165C418.5 583.332 411 586.832 411 586.832C410 587.332 408.666 586.832 408.166 585.832C407.666 584.832 408 583.499 409.166 582.999C409.5 582.832 417.666 578.832 431.166 579.832C444.833 580.832 451.333 587.332 451.666 587.499C452.5 588.332 452.5 589.665 451.666 590.499C450.833 591.165 450.333 591.332 449.833 591.332Z" fill="#58B32B"/>
<path d="M431.166 634.499C421.999 634.499 415.999 632.166 415.832 631.999C414.666 631.499 414.166 630.333 414.666 629.166C415.166 627.999 416.332 627.499 417.499 627.999C417.499 627.999 424.166 630.666 434.166 629.999C444.166 629.499 451.666 625.499 451.666 625.499C452.666 624.999 453.999 625.333 454.499 626.333C454.999 627.333 454.666 628.666 453.666 629.166C453.332 629.333 445.332 633.499 434.332 634.166C433.332 634.499 432.166 634.499 431.166 634.499Z" fill="#58B32B"/>
<path d="M440.166 676C432 676 427.333 673.5 427.166 673.333C426.166 672.833 425.666 671.5 426.333 670.5C426.833 669.5 428.166 669.166 429.166 669.666C429.333 669.666 435.333 672.833 446 671.333C456.5 669.833 460.5 665.5 460.5 665.5C461.333 664.666 462.666 664.5 463.5 665.333C464.333 666.166 464.5 667.5 463.666 668.333C463.5 668.5 458.833 673.833 446.5 675.5C444.333 676 442.166 676 440.166 676Z" fill="#58B32B"/>
<path d="M473.331 509.499C473.331 509.499 467.998 516.999 462.665 531.332C460.331 529.999 457.831 528.666 455.165 527.166C439.165 518.166 425.665 513.832 417.498 511.832C423.331 492.666 427.165 489.166 427.165 489.166C427.165 489.166 430.498 488.166 435.331 487.499C442.165 486.499 451.998 486.499 458.831 491.499C460.665 492.832 462.165 494.166 463.665 495.499C471.331 502.832 473.331 509.499 473.331 509.499Z" fill="#58B32B"/>
<path d="M430.499 332.666C430.499 332.666 413.999 374.833 406.999 402.666C399.999 430.499 384.499 489.832 384.499 489.832C384.499 489.832 379.999 493.832 373.666 495.666C370.999 496.332 368.166 496.832 365.166 496.332C354.999 494.666 348.666 486.666 348.666 486.666C348.666 486.666 361.499 450.333 371.166 413.999C380.833 377.499 399.999 313.333 399.999 313.333C411.833 311.999 419.166 313.833 423.666 316.666C432.666 322.499 430.499 332.666 430.499 332.666Z" fill="#79C255"/>
<path d="M430.499 332.665C430.499 332.665 413.999 374.832 406.999 402.665C399.999 430.499 384.499 489.832 384.499 489.832C384.499 489.832 379.999 493.832 373.666 495.665C377.333 481.832 383.666 458.165 390.833 429.499C400.999 389.332 418.999 331.665 423.499 316.832C432.666 322.499 430.499 332.665 430.499 332.665Z" fill="#58B32B"/>
<path d="M388 466.832C387.167 466.832 386.334 466.332 386 465.499C386 465.499 383 457.832 376.5 456.332C368.167 454.332 363.5 456.332 363.5 456.332C362.5 456.832 361.167 456.332 360.667 455.332C360.167 454.332 360.667 452.999 361.667 452.499C361.834 452.332 367.5 449.666 377.5 452.166C386.167 454.166 389.834 463.666 390 463.999C390.5 465.166 389.834 466.332 388.834 466.832C388.5 466.832 388.334 466.832 388 466.832Z" fill="#58B32B"/>
<path d="M400.834 419.332C400 419.332 399.334 418.832 398.834 418.165C398.834 418.165 395 410.499 388.834 408.999C380.834 407.165 376.5 408.999 376.5 408.999C375.5 409.499 374.167 408.999 373.667 407.999C373.167 406.999 373.667 405.665 374.667 405.165C374.834 404.999 380.334 402.499 390 404.832C398.167 406.832 402.667 415.832 402.834 416.165C403.334 417.165 402.834 418.499 401.834 418.999C401.5 419.165 401.167 419.332 400.834 419.332Z" fill="#58B32B"/>
<path d="M413.666 372.499C412.833 372.499 412.166 371.999 411.833 371.332C411.833 371.332 408.5 364.665 402.166 362.999C394.166 360.999 389.666 362.999 389.666 362.999C388.666 363.499 387.333 362.999 386.833 361.999C386.333 360.999 386.833 359.665 387.833 359.165C388 358.999 393.5 356.499 403.166 358.832C411.333 360.832 415.333 368.999 415.5 369.332C416 370.332 415.5 371.665 414.5 372.165C414.333 372.332 414 372.499 413.666 372.499Z" fill="#58B32B"/>
<path d="M384.5 489.666L379.167 523.832C379.167 523.832 376 524.999 371.334 525.999C368.167 526.832 364.167 527.499 360.334 527.666C349 528.332 344 526.666 344 526.666C344 526.666 342 522.332 344 507.666C345.834 492.999 349.167 484.999 349.167 484.999C349.167 484.999 354.5 481.999 365.667 482.999C369.834 483.332 373.167 484.166 375.834 484.999C381.834 486.999 384.167 489.332 384.5 489.666Z" fill="#1C3177"/>
<path d="M384.501 489.665L379.167 523.831C379.167 523.831 376.001 524.998 371.334 525.998L375.834 484.998C381.834 486.998 384.167 489.331 384.501 489.665Z" fill="#0E2566"/>
<path d="M376.166 500.166L387.333 513.666C387.333 513.666 391.5 520.5 397.166 516.833C401 514.166 396.666 508.5 395.333 506.166C395 505.5 389.333 497.833 385.666 492.833C383.166 489.5 378.166 489.666 376 493.166C374.666 494.666 374.333 497 376.166 500.166Z" fill="#1C3177"/>
<path d="M344.166 524.998C344.166 524.998 345.833 539.332 348.166 545.998C350.499 552.832 354.166 560.165 356.333 561.165C358.499 562.165 360.333 559.998 360.666 556.665C360.999 553.332 358.333 547.165 357.166 539.332C355.999 531.498 354.999 525.498 354.999 525.498C354.999 525.498 348.499 519.165 344.166 524.998Z" fill="#1C3177"/>
<path d="M355.334 525.166C355.334 525.166 358.501 540.333 361.501 547.333C364.501 554.333 369.001 562 371.167 562.833C373.334 563.666 375.001 561.333 375.001 557.666C375.001 554 371.667 547.833 369.667 539.5C367.667 531.166 367.834 524.333 367.834 524.333C367.834 524.333 359.001 518.5 355.334 525.166Z" fill="#1C3177"/>
<path d="M367.834 522.832C367.834 522.832 371.001 536.998 374.001 543.498C377.001 549.998 381.501 557.165 383.667 557.998C385.834 558.831 387.501 556.498 387.501 553.165C387.501 549.831 384.167 543.998 382.167 536.165C380.167 528.498 378.667 522.665 378.667 522.665C378.667 522.665 371.501 516.665 367.834 522.832Z" fill="#1C3177"/>
<path d="M588.167 430.166C588.167 430.166 586.833 435.333 583.333 443.333C580.333 449.999 575.833 458.833 569.167 467.999C564 475.166 550.5 487.166 531.667 496.333C517.333 503.333 500 508.666 480.833 508.999C445 509.499 425.333 500.833 415.333 493.666C408.5 488.666 406 484.499 406 484.499L459.5 468.499L588.167 430.166Z" fill="#DEF0D5"/>
<path d="M531.667 496.333C517.333 503.333 500 508.667 480.833 509C445 509.5 425.333 500.833 415.333 493.667C408.5 488.667 406 484.5 406 484.5L459.5 468.5C467.833 474.5 498.5 470.5 534.5 478.833C537.333 479.5 536 490.667 531.667 496.333Z" fill="#79C255"/>
<path d="M588.166 430.166C588.166 430.166 586.833 435.333 583.333 443.333C579.833 447.333 575.833 451.666 570.999 456.333C551.999 474.833 534.333 485.666 534.333 485.666C534.333 485.666 513.833 492.833 479.833 494.666C454.833 495.999 427.666 494.333 414.999 493.499C408.166 488.499 405.666 484.333 405.666 484.333L588.166 430.166Z" fill="#1C3177"/>
<path d="M535.333 478L533.166 478.5C525.666 480.5 498.999 486.833 464.666 488.667C450.499 489.333 438.999 489.167 430.166 488.333C413.666 487 405.999 484.333 405.999 484.333L392.666 304.833L404.333 302.667L473.333 290C473.333 290 486.166 327.333 503.999 379.5C521.666 431.5 535.333 478 535.333 478Z" fill="#79C255"/>
<path d="M588.167 430.167C588.167 430.167 582.334 437.333 570.501 449.5L570.334 449.667C558.334 462 535.334 478 535.334 478H535.167C531.167 463.833 523.334 437.5 514.334 410.5C501.001 371 473.334 290 473.334 290L490.667 266L500.001 253C500.001 253 524.667 276.5 547.501 323C570.334 369.5 588.167 430.167 588.167 430.167Z" fill="#9BD180"/>
<path d="M500 253L473.333 290L392.5 304.833L422 273.333L473.667 259.833L500 253Z" fill="#79C255"/>
<path d="M430.166 488.501C413.666 487.167 405.999 484.501 405.999 484.501L392.666 305.001L404.333 302.834L430.166 488.501Z" fill="#58B32B"/>
<path d="M473.667 259.834C471 265.001 467.333 270.834 462.167 276.501C449.5 290.501 435.5 296.501 435.5 296.501L392.5 304.834L421.833 273.334L473.667 259.834Z" fill="#58B32B"/>
<path d="M588.166 430.167C588.166 430.167 582.333 437.333 570.499 449.5C563.333 424.667 553.166 392.833 539.666 359.333C521.166 313 502.666 282.833 490.666 266L499.999 253C499.999 253 524.666 276.5 547.499 323C570.333 369.5 588.166 430.167 588.166 430.167Z" fill="#DEF0D5"/>
<path d="M505.999 449.501C506.332 451.835 504.665 453.835 502.332 453.835C499.999 453.835 497.999 452.001 497.666 449.501C497.332 447.168 498.999 445.168 501.332 445.168C503.665 445.168 505.666 447.168 505.999 449.501Z" fill="#58B32B"/>
<path d="M482.833 349.167C482.833 351.501 481.167 353.501 478.833 353.501C476.5 353.501 474.667 351.501 474.5 349.167C474.5 346.834 476.167 344.834 478.5 344.834C480.833 344.834 482.667 346.667 482.833 349.167Z" fill="#58B32B"/>
<path d="M409.833 361.001C409.833 363.168 408.333 364.835 406.333 364.835C404.333 364.835 402.666 363.168 402.666 361.001C402.666 358.835 404.166 357.168 406.166 357.168C408.166 357.168 409.833 358.835 409.833 361.001Z" fill="#79C255"/>
<path d="M421.667 457.167C421.667 459.334 420.167 461.001 418.167 461.001C416.167 461.001 414.5 459.334 414.5 457.167C414.5 455.001 416 453.334 418 453.334C419.833 453.334 421.5 455.001 421.667 457.167Z" fill="#79C255"/>
<path d="M543.333 462.833C543.5 465.333 541.833 467.333 539.5 467.333C537.166 467.333 535.166 465.333 535 462.833C534.833 460.333 536.5 458.333 538.833 458.333C541.166 458.167 543.166 460.333 543.333 462.833Z" fill="#79C255"/>
<path d="M583.666 426.834C583.832 428.667 582.499 430.334 580.666 430.334C578.999 430.334 577.332 428.834 577.332 426.834C577.166 425.001 578.499 423.334 580.332 423.334C581.999 423.501 583.666 425.001 583.666 426.834Z" fill="#79C255"/>
<path d="M530.833 307.167C533.167 322.334 525.5 334.5 513.5 334.5C501.5 334.5 489.833 322.167 487.5 307.167C485.167 292 492.833 279.834 504.833 279.834C516.833 279.667 528.5 292 530.833 307.167Z" fill="#58B32B"/>
<path d="M529.666 301.333C533.333 313.167 529.666 324 521.666 325.333C513.666 326.667 504.166 318.167 500.666 306.167C496.999 294.333 500.666 283.5 508.666 282.167C516.666 280.833 525.999 289.5 529.666 301.333Z" fill="#9BD180"/>
<path d="M522.5 302.835C524 307.668 522.5 312.168 519.167 312.668C515.834 313.168 512 309.668 510.5 304.835C509 300.001 510.5 295.501 513.834 295.001C517.167 294.335 521 297.835 522.5 302.835Z" fill="#58B32B"/>
<path d="M572.666 327.333C570.666 327.333 568.333 327 565.999 326.167C558.999 323.5 556.999 321.667 549.499 314.5C547.833 312.833 545.833 311 543.499 308.833C532.666 298.667 521.499 306.167 520.999 306.5C519.499 307.5 517.499 307.167 516.499 305.667C515.499 304.167 515.833 302.167 517.333 301.167C522.833 297.333 536.333 293.167 547.833 304.167C550.166 306.333 552.166 308.333 553.833 309.833C560.999 316.833 562.333 318 568.166 320.167C576.499 323.167 580.999 317.167 581.499 316.5C582.499 315 584.499 314.667 585.999 315.667C587.499 316.667 587.833 318.667 586.833 320.167C584.999 323.167 579.833 327.333 572.666 327.333Z" fill="#1C3177"/>
<path d="M498.166 440.499L497.333 440.666L475.166 443.166L456.833 445.166L452.666 445.666L438.499 447.166L437.499 447.333L434.833 447.499L419.166 449.333L416.999 431.999L409.166 368.499L423.666 366.166L437.666 363.999H437.833L451.666 361.833L478.333 357.666L482.666 376.333L483.166 377.999L487.333 395.999L488.166 398.999L492.666 417.833L497.999 439.833L498.166 440.499Z" fill="#0E2566"/>
<path d="M498.167 440.499L497.333 440.665L475.167 443.165L456.833 445.165L452.667 445.665L438.5 447.165L437.5 447.332L434.833 447.499L427 384.999L441.667 382.832L455.5 380.665L455.667 380.499L469.667 378.332L482.667 376.332L483.167 377.999L487.333 395.999L488.167 398.999L492.667 417.832L498 439.832L498.167 440.499Z" fill="#1C3177"/>
<path d="M474.001 432.499C474.001 436.499 475.834 440.165 478.667 442.499L463.001 444.165L459.334 444.499L447.167 445.832L446.834 439.332L446.334 427.499L457.167 427.165C457.501 425.499 457.834 423.832 458.501 422.165L448.167 415.332L459.334 398.499L470.667 406.999C472.001 406.165 473.334 405.499 474.667 404.832L471.334 390.332L480.001 388.165L485.167 386.832L488.834 402.165L489.501 404.832L493.334 420.999C491.501 419.832 489.167 419.332 486.834 419.332C480.001 419.332 474.001 425.332 474.001 432.499Z" fill="#D2E9FF"/>
<path d="M440.999 387.831L427.166 389.831L423.666 366.165L437.666 363.998L440.999 387.831Z" fill="#D2E9FF"/>
<path d="M453.833 378.165L439.833 379.999L437.666 363.999L451.499 361.832L453.833 378.165Z" fill="#AED8FC"/>
<path d="M437.5 447.332L419.167 449.332L417 431.999L435.333 429.832L437.5 447.332Z" fill="#AED8FC"/>
<path d="M474 432.499C474 436.499 475.833 440.166 478.667 442.499L463 444.166L459.333 444.499L447.167 445.833L447 442.666L466.833 440.833C466.833 440.833 463.667 430.166 469.5 420.166C475.333 410.166 484.833 410.166 484.833 410.166L480.167 387.999L485.333 386.666L489 401.999L489.667 404.666L493.5 420.833C491.667 419.666 489.333 419.166 487 419.166C480 419.333 474 425.333 474 432.499Z" fill="#AED8FC"/>
<path d="M378.667 397C367.667 397 361.333 390.167 359.5 386C358.667 384.333 359.5 382.5 361 381.667C362.667 380.833 364.5 381.667 365.333 383.167C365.5 383.5 370 392.167 382.167 390.167C389.167 389 391.5 385.833 394.167 382.333C396.5 379.167 399.167 375.5 405 373.833C413.333 371.333 421.667 377.5 422 377.833C423.333 378.833 423.667 381 422.667 382.333C421.667 383.667 419.667 384 418.167 383C418 383 412 378.5 406.833 380C403.167 381.167 401.5 383.333 399.333 386.167C396.5 390.167 392.833 395 383.167 396.667C381.667 397 380.167 397 378.667 397Z" fill="#AED8FC"/>
<path d="M390.667 415C380.834 419.833 372.167 416.666 368.5 413.833C367.167 412.666 366.834 410.666 368 409.333C369.167 408 371.167 407.666 372.5 408.833C372.834 409 380.667 414.833 390.834 407.5C396.667 403.333 397.334 399.5 398 395C398.667 391 399.5 386.666 403.834 382.5C410.167 376.5 420.334 378.333 420.834 378.5C422.5 378.833 423.667 380.5 423.334 382.166C423 383.833 421.334 385 419.667 384.666C419.5 384.666 412.167 383.333 408.167 387.166C405.334 389.833 404.834 392.666 404.334 396.166C403.5 401 402.5 407 394.5 412.833C393.334 413.5 392 414.333 390.667 415Z" fill="#FEC272"/>
<path d="M471.665 217.167C471.665 217.167 463.331 233.501 447.831 249.167C440.331 256.834 431.165 264.167 420.331 269.501C405.498 276.834 391.665 282.167 380.831 285.667C367.165 290.167 358.331 292.001 358.331 292.001C358.331 292.001 328.998 242.834 324.665 205.501C321.665 179.001 330.665 160.334 346.498 147.834C350.498 144.667 354.998 141.834 359.831 139.501C362.998 138.001 366.165 136.667 369.498 135.334C398.831 124.667 426.165 144.501 439.998 161.501C453.998 178.667 471.665 217.167 471.665 217.167Z" fill="#79C255"/>
<path d="M380.831 285.667C367.165 290.167 358.331 292.001 358.331 292.001C358.331 292.001 328.998 242.834 324.665 205.501C321.665 179.001 330.665 160.334 346.498 147.834C343.665 162.334 342.498 181.334 348.498 201.334C355.998 225.501 370.165 260.334 380.831 285.667Z" fill="#58B32B"/>
<path d="M395.243 248.451C407.539 243.499 412.404 226.818 406.111 211.193C399.818 195.568 384.749 186.916 372.454 191.868C360.159 196.82 355.293 213.501 361.586 229.126C367.879 244.751 382.948 253.403 395.243 248.451Z" fill="#9BD180"/>
<path d="M391.127 245.562C401.8 241.263 405.992 226.704 400.49 213.042C394.987 199.381 381.875 191.791 371.202 196.09C360.529 200.388 356.337 214.948 361.84 228.609C367.342 242.27 380.454 249.86 391.127 245.562Z" fill="#1C3177"/>
<path d="M388.052 240.944C396.932 237.368 400.451 225.332 395.911 214.061C391.372 202.791 380.493 196.553 371.614 200.13C362.734 203.706 359.215 215.742 363.754 227.013C368.294 238.283 379.172 244.521 388.052 240.944Z" fill="#0E2566"/>
<path d="M347.861 265.038C354.265 262.459 355.274 249.986 350.116 237.178C344.958 224.371 335.585 216.079 329.181 218.658C322.777 221.237 321.768 233.711 326.926 246.518C332.084 259.326 341.457 267.617 347.861 265.038Z" fill="#79C255"/>
<path d="M344.824 265.147C350.8 262.74 351.771 251.168 346.99 239.299C342.21 227.431 333.49 219.761 327.513 222.169C321.537 224.576 320.566 236.148 325.346 248.017C330.127 259.885 338.847 267.555 344.824 265.147Z" fill="#1C3177"/>
<path d="M342.146 261.181C346.928 259.255 347.682 249.941 343.83 240.378C339.979 230.816 332.98 224.624 328.199 226.55C323.417 228.476 322.663 237.789 326.515 247.352C330.366 256.915 337.365 263.106 342.146 261.181Z" fill="#0E2566"/>
<path d="M427.832 104.167L418.499 144L404.165 142.5L380.999 140.167L369.332 139L395.332 90.8333C395.332 90.8333 397.999 89.6667 401.832 88.8333C405.832 87.8333 410.832 87.5 415.165 89.1667C417.665 90.1667 419.832 92 421.499 93.8333C425.665 98.5 427.832 104.167 427.832 104.167Z" fill="#79C255"/>
<path d="M427.833 104.167L418.499 144L404.166 142.5L421.499 94C425.666 98.5 427.833 104.167 427.833 104.167Z" fill="#58B32B"/>
<path d="M401.832 88.834L380.999 140.167L369.332 139.001L395.332 90.834C395.332 90.834 397.999 89.6673 401.832 88.834Z" fill="#9BD180"/>
<path d="M422.498 115.667C421.498 115.667 420.665 115 420.498 114.167C420.332 113.834 417.998 106.667 406.998 103.667C398.332 101.167 393.165 104 393.165 104.167C392.165 104.834 390.832 104.334 390.165 103.334C389.498 102.334 389.998 101 390.998 100.334C391.332 100.167 397.832 96.5002 408.165 99.5002C421.498 103.334 424.332 112.5 424.498 113C424.832 114.167 424.165 115.334 422.998 115.667C422.998 115.667 422.665 115.667 422.498 115.667Z" fill="#58B32B"/>
<path d="M418.831 132.333C417.831 132.333 416.998 131.667 416.665 130.667C416.665 130.333 414.665 122.333 402.498 118.667C390.331 115 385.331 119.5 384.998 119.833C384.165 120.667 382.831 120.667 381.998 119.833C381.165 119 381.165 117.667 381.998 116.833C382.331 116.5 388.831 110.333 403.665 114.667C418.331 119.167 420.665 129.333 420.665 129.833C420.831 131 420.165 132.167 418.998 132.333C419.165 132.333 418.998 132.333 418.831 132.333Z" fill="#58B32B"/>
<path d="M471.665 217.167C471.665 217.167 463.332 233.5 447.832 249.167C433.999 220.5 409.665 173.167 392.665 156.5C381.332 145.333 369.499 141 359.832 139.667C362.999 138.167 366.165 136.833 369.499 135.5C398.832 124.833 426.165 144.667 439.999 161.667C453.999 178.667 471.665 217.167 471.665 217.167Z" fill="#9BD180"/>
<path d="M484.167 229.5C484.167 229.5 468.167 254 441.833 272.833C438.333 275.333 434.5 277.833 430.667 280C416.667 288.167 401.833 294.333 389.5 298.833C373 304.833 361 307.667 361 307.667L352.5 282.167C352.5 282.167 366.333 276.667 384.167 268.333C386.167 267.333 388.167 266.333 390.333 265.333C411 255.333 418.833 249 418.833 249L416.667 226.167C416.667 226.167 420.5 223.667 425.833 220C431.667 216 439.167 210.667 444.5 206.167C454.667 197.667 458.333 190.5 458.333 190.5C458.333 190.5 467.167 201.333 473.833 211.833C480.5 222.167 484.167 229.5 484.167 229.5Z" fill="#79C255"/>
<path d="M484.166 229.499C484.166 229.499 468.166 253.999 441.833 272.833L425.666 220.166C431.499 216.166 438.999 210.833 444.333 206.333C454.499 197.833 458.166 190.666 458.166 190.666C458.166 190.666 466.999 201.499 473.666 211.999C480.499 222.166 484.166 229.499 484.166 229.499Z" fill="#9BD180"/>
<path d="M389.666 298.834C373.166 304.834 361.166 307.667 361.166 307.667L352.666 282.167C352.666 282.167 366.499 276.667 384.333 268.334L389.666 298.834Z" fill="#58B32B"/>
<path d="M459.665 190.167C461.999 204.667 454.499 216.333 443.165 216.333C431.832 216.333 420.665 204.667 418.332 190.167C415.999 175.667 423.499 164 434.832 164C446.165 164 457.332 175.667 459.665 190.167Z" fill="#58B32B"/>
<path d="M459.665 184.833C463.498 197.667 459.665 209.333 450.998 210.833C442.332 212.333 431.998 203 428.165 190C424.332 177 428.165 165.5 436.832 164C445.498 162.667 455.665 172 459.665 184.833Z" fill="#9BD180"/>
<path d="M453.498 183.499C455.331 189.332 453.498 194.499 449.665 195.166C445.831 195.832 441.165 191.666 439.331 185.832C437.498 179.999 439.331 174.832 443.165 174.166C447.165 173.666 451.831 177.832 453.498 183.499Z" fill="#79C255"/>
<path d="M361.667 376.999C361 376.666 360.667 376.166 360.5 375.499L359 368.166C358.833 366.999 359.5 365.833 360.667 365.666C361.833 365.499 363 366.166 363.167 367.333L364.667 374.666C364.833 375.833 364.167 376.999 363 377.166C362.5 377.166 362 377.166 361.667 376.999Z" fill="#FEC272"/>
<path d="M354.666 381.166C354.499 381.166 354.499 381.166 354.333 380.999L343.666 375.999C342.666 375.499 342.166 374.333 342.499 373.166C342.999 372.166 344.166 371.666 345.333 371.999L355.999 376.999C356.999 377.499 357.499 378.666 357.166 379.833C356.833 380.999 355.666 381.333 354.666 381.166Z" fill="#FEC272"/>
<path d="M344.332 392.5C343.832 392.333 343.499 391.833 343.332 391.333C342.999 390.166 343.499 389 344.665 388.666L352.999 386C354.165 385.666 355.332 386.166 355.665 387.333C355.999 388.5 355.499 389.666 354.332 390L345.999 392.666C345.332 392.833 344.832 392.833 344.332 392.5Z" fill="#FEC272"/>
<path d="M591.167 307.167C590.667 307.334 590 307.167 589.5 307C588.5 306.334 588.166 305 588.833 304L593.667 295.834C594.333 294.834 595.667 294.5 596.667 295.167C597.667 295.834 598 297.167 597.333 298.167L592.5 306.334C592.167 306.667 591.667 307 591.167 307.167Z" fill="#FEC272"/>
<path d="M594.833 317.5C594 317.5 593.167 316.833 593 316C592.667 314.833 593.333 313.667 594.5 313.333L608.667 309C609.833 308.667 611 309.333 611.333 310.5C611.667 311.667 611 312.833 609.833 313.167L595.667 317.5C595.333 317.5 595.167 317.667 594.833 317.5Z" fill="#FEC272"/>
<path d="M600.166 332.668C600 332.668 599.833 332.668 599.5 332.501L593.666 330.168C592.5 329.668 592 328.501 592.5 327.334C593 326.168 594.166 325.668 595.333 326.168L601.166 328.501C602.333 329.001 602.833 330.168 602.333 331.334C602 332.334 601 332.834 600.166 332.668Z" fill="#FEC272"/>
<path d="M501.833 224.166C501.666 224.166 501.499 224.166 501.333 224.166C500.166 223.833 499.499 222.833 499.666 221.666L503.499 204.833C503.833 203.666 504.833 202.999 505.999 203.166C507.166 203.499 507.833 204.499 507.666 205.666L503.833 222.499C503.666 223.499 502.833 224.166 501.833 224.166Z" fill="#FEC272"/>
<path d="M512.333 231.333C511.667 231.333 510.833 230.999 510.5 230.333C509.833 229.333 510.167 227.999 511.333 227.333L531.333 215.666C532.333 214.999 533.667 215.333 534.333 216.499C535 217.499 534.667 218.833 533.5 219.499L513.5 231.166C513 231.166 512.667 231.333 512.333 231.333Z" fill="#FEC272"/>
<path d="M538.499 246.832L516.999 245.665C515.832 245.665 514.832 244.665 514.999 243.499C514.999 242.332 515.999 241.332 517.165 241.499L538.499 242.665C539.665 242.665 540.665 243.665 540.499 244.832C540.665 245.999 539.665 246.832 538.499 246.832Z" fill="#FEC272"/>
</svg>
