<?xml version="1.0" encoding="UTF-8"?>
<svg version="1.1" xmlns="http://www.w3.org/2000/svg" width="240" height="48">
<path d="M0 0 C1.13308594 -0.05027344 2.26617187 -0.10054688 3.43359375 -0.15234375 C4.93986328 -0.22582031 4.93986328 -0.22582031 6.4765625 -0.30078125 C10.52843117 0.46501621 11.85781654 1.88759772 14.24609375 5.22265625 C14.98740022 8.30688034 15.03869295 11.30993644 15.05859375 14.47265625 C15.07937988 15.34929932 15.10016602 16.22594238 15.12158203 17.12915039 C15.16041789 18.9382814 15.18868539 20.74766922 15.20654297 22.55712891 C15.24412179 25.08975573 15.34598712 27.6108879 15.46875 30.140625 C15.52137073 31.64707229 15.5722418 33.15358204 15.62109375 34.66015625 C15.65952393 35.35077148 15.6979541 36.04138672 15.73754883 36.75292969 C15.79690912 40.40154867 15.30685751 42.13624695 13.19140625 45.14453125 C9.50486838 47.74564285 7.23310162 47.9159149 2.74609375 48.03515625 C2.04339355 48.05739258 1.34069336 48.07962891 0.61669922 48.10253906 C-0.81938765 48.14344952 -2.25583377 48.17329315 -3.69238281 48.19189453 C-5.57564934 48.21999633 -7.45806498 48.29505515 -9.33984375 48.375 C-15.83656181 48.56789543 -22.99777776 48.64364134 -28.75390625 45.22265625 C-30.81612589 41.2637999 -30.90599032 38.22545166 -30.58203125 33.8203125 C-30.494375 32.60021484 -30.40671875 31.38011719 -30.31640625 30.12304688 C-30.21328125 28.85654297 -30.11015625 27.59003906 -30.00390625 26.28515625 C-29.91625 25.02251953 -29.82859375 23.75988281 -29.73828125 22.45898438 C-28.6596523 8.26452702 -28.6596523 8.26452702 -24.12890625 3.41015625 C-18.74153387 -0.0916358 -12.01964296 0.34134472 -5.80517578 0.26220703 C-3.86850426 0.22486583 -1.93363314 0.11469 0 0 Z " fill="#F9FBFE" transform="translate(32.75390625,-0.22265625)"/>
<path d="M0 0 C1.13308594 -0.05027344 2.26617187 -0.10054688 3.43359375 -0.15234375 C4.93986328 -0.22582031 4.93986328 -0.22582031 6.4765625 -0.30078125 C10.52843117 0.46501621 11.85781654 1.88759772 14.24609375 5.22265625 C14.98740022 8.30688034 15.03869295 11.30993644 15.05859375 14.47265625 C15.07937988 15.34929932 15.10016602 16.22594238 15.12158203 17.12915039 C15.16041789 18.9382814 15.18868539 20.74766922 15.20654297 22.55712891 C15.24412179 25.08975573 15.34598712 27.6108879 15.46875 30.140625 C15.52137073 31.64707229 15.5722418 33.15358204 15.62109375 34.66015625 C15.65952393 35.35077148 15.6979541 36.04138672 15.73754883 36.75292969 C15.79690912 40.40154867 15.30685751 42.13624695 13.19140625 45.14453125 C9.50486838 47.74564285 7.23310162 47.9159149 2.74609375 48.03515625 C2.04339355 48.05739258 1.34069336 48.07962891 0.61669922 48.10253906 C-0.81938765 48.14344952 -2.25583377 48.17329315 -3.69238281 48.19189453 C-5.57564934 48.21999633 -7.45806498 48.29505515 -9.33984375 48.375 C-15.83656181 48.56789543 -22.99777776 48.64364134 -28.75390625 45.22265625 C-30.81612589 41.2637999 -30.90599032 38.22545166 -30.58203125 33.8203125 C-30.494375 32.60021484 -30.40671875 31.38011719 -30.31640625 30.12304688 C-30.21328125 28.85654297 -30.11015625 27.59003906 -30.00390625 26.28515625 C-29.91625 25.02251953 -29.82859375 23.75988281 -29.73828125 22.45898438 C-28.6596523 8.26452702 -28.6596523 8.26452702 -24.12890625 3.41015625 C-18.74153387 -0.0916358 -12.01964296 0.34134472 -5.80517578 0.26220703 C-3.86850426 0.22486583 -1.93363314 0.11469 0 0 Z M-20.75390625 6.22265625 C-20.95364358 8.92400948 -21.03372198 11.52062836 -21.01953125 14.22265625 C-21.0214447 15.01414062 -21.02335815 15.805625 -21.02532959 16.62109375 C-21.02669143 18.29557615 -21.02299507 19.9700691 -21.01464844 21.64453125 C-21.00394865 24.21248006 -21.0145435 26.77972928 -21.02734375 29.34765625 C-21.02602215 30.9726578 -21.02345976 32.59765891 -21.01953125 34.22265625 C-21.02357971 34.99351563 -21.02762817 35.764375 -21.03179932 36.55859375 C-21.15035336 40.85395062 -21.15035336 40.85395062 -18.75390625 44.22265625 C-15.87302702 44.53464164 -15.87302702 44.53464164 -12.50390625 44.48828125 C-11.25609375 44.49085937 -10.00828125 44.4934375 -8.72265625 44.49609375 C-7.41296875 44.48835938 -6.10328125 44.480625 -4.75390625 44.47265625 C-2.789375 44.48425781 -2.789375 44.48425781 -0.78515625 44.49609375 C1.0865625 44.49222656 1.0865625 44.49222656 2.99609375 44.48828125 C4.72085938 44.48489746 4.72085938 44.48489746 6.48046875 44.48144531 C9.38809207 44.50609301 9.38809207 44.50609301 11.24609375 42.22265625 C11.44583108 39.52130302 11.52590948 36.92468414 11.51171875 34.22265625 C11.5136322 33.43117188 11.51554565 32.6396875 11.51751709 31.82421875 C11.51887893 30.14973635 11.51518257 28.4752434 11.50683594 26.80078125 C11.49613615 24.23283244 11.506731 21.66558322 11.51953125 19.09765625 C11.51820965 17.4726547 11.51564726 15.84765359 11.51171875 14.22265625 C11.51576721 13.45179687 11.51981567 12.6809375 11.52398682 11.88671875 C11.64254086 7.59136188 11.64254086 7.59136188 9.24609375 4.22265625 C6.36521452 3.91067086 6.36521452 3.91067086 2.99609375 3.95703125 C1.74828125 3.95445313 0.50046875 3.951875 -0.78515625 3.94921875 C-2.09484375 3.95695313 -3.40453125 3.9646875 -4.75390625 3.97265625 C-6.7184375 3.96105469 -6.7184375 3.96105469 -8.72265625 3.94921875 C-10.594375 3.95308594 -10.594375 3.95308594 -12.50390625 3.95703125 C-13.65375 3.95928711 -14.80359375 3.96154297 -15.98828125 3.96386719 C-18.89590457 3.93921949 -18.89590457 3.93921949 -20.75390625 6.22265625 Z " fill="#216FE1" transform="translate(32.75390625,-0.22265625)"/>
<path d="M0 0 C1.98 0 3.96 0 6 0 C6.99 4.29 7.98 8.58 9 13 C10.32 8.71 11.64 4.42 13 0 C14.65 0 16.3 0 18 0 C17.36145015 5.52675903 16.06306646 10.62367351 14.4375 15.9375 C14.20353516 16.71673828 13.96957031 17.49597656 13.72851562 18.29882812 C13.15682579 20.20057187 12.57904309 22.10048226 12 24 C10.02 24 8.04 24 6 24 C4.99353274 20.56435978 3.9959455 17.12620371 3 13.6875 C2.71382812 12.71103516 2.42765625 11.73457031 2.1328125 10.72851562 C1.86210938 9.79072266 1.59140625 8.85292969 1.3125 7.88671875 C1.06113281 7.02264404 0.80976562 6.15856934 0.55078125 5.26831055 C0 3 0 3 0 0 Z " fill="#FFFFFF" transform="translate(50,10)"/>
<path d="M0 0 C0.66 0 1.32 0 2 0 C2.01981934 1.09989258 2.03963867 2.19978516 2.06005859 3.33300781 C2.13619901 7.41836222 2.22490336 11.50336438 2.31738281 15.58837891 C2.35563771 17.3555607 2.3904967 19.12281944 2.421875 20.89013672 C2.46760152 23.43224563 2.52558289 25.97382648 2.5859375 28.515625 C2.59748871 29.30430969 2.60903992 30.09299438 2.62094116 30.90557861 C2.72337084 34.72273255 2.852852 37.76044336 5 41 C1.54771238 41.31384433 -0.34051426 41.47753847 -3.20166016 39.40576172 C-5.6402185 36.1435361 -5.3326283 34.2827078 -5.0234375 30.2578125 C-4.92933594 28.94425781 -4.83523438 27.63070312 -4.73828125 26.27734375 C-4.67850098 25.59526855 -4.6187207 24.91319336 -4.55712891 24.21044922 C-4.37631651 22.14007459 -4.22642105 20.06929478 -4.08203125 17.99609375 C-2.93754231 2.93754231 -2.93754231 2.93754231 0 0 Z " fill="#F8FBFE" transform="translate(7,5)"/>
<path d="M0 0 C1.65 0 3.3 0 5 0 C5 4.29 5 8.58 5 13 C5.99 13 6.98 13 8 13 C8.33 8.71 8.66 4.42 9 0 C10.65 0 12.3 0 14 0 C14 5.94 14 11.88 14 18 C4.8203125 18.1953125 4.8203125 18.1953125 2 18 C0 16 0 16 -0.1953125 12.3046875 C-0.182009 10.82799892 -0.15814835 9.35137642 -0.125 7.875 C-0.11146484 6.74384766 -0.11146484 6.74384766 -0.09765625 5.58984375 C-0.0740687 3.72642746 -0.03819719 1.86317407 0 0 Z " fill="#FFFFFF" transform="translate(220,16)"/>
<path d="M0 0 C1.65 0 3.3 0 5 0 C5 4.29 5 8.58 5 13 C5.99 13 6.98 13 8 13 C8.33 8.71 8.66 4.42 9 0 C10.65 0 12.3 0 14 0 C14 5.94 14 11.88 14 18 C4.8203125 18.1953125 4.8203125 18.1953125 2 18 C0 16 0 16 -0.1953125 12.3046875 C-0.182009 10.82799892 -0.15814835 9.35137642 -0.125 7.875 C-0.11146484 6.74384766 -0.11146484 6.74384766 -0.09765625 5.58984375 C-0.0740687 3.72642746 -0.03819719 1.86317407 0 0 Z " fill="#FFFFFF" transform="translate(156,16)"/>
<path d="M0 0 C1.65 0 3.3 0 5 0 C5 4.29 5 8.58 5 13 C5.99 13 6.98 13 8 13 C8.33 8.71 8.66 4.42 9 0 C10.65 0 12.3 0 14 0 C14 5.94 14 11.88 14 18 C4.8203125 18.1953125 4.8203125 18.1953125 2 18 C0 16 0 16 -0.1953125 12.3046875 C-0.182009 10.82799892 -0.15814835 9.35137642 -0.125 7.875 C-0.11146484 6.74384766 -0.11146484 6.74384766 -0.09765625 5.58984375 C-0.0740687 3.72642746 -0.03819719 1.86317407 0 0 Z " fill="#FFFFFF" transform="translate(100,16)"/>
<path d="M0 0 C9.1796875 -0.1953125 9.1796875 -0.1953125 12 0 C14 2 14 2 14.1953125 5.6953125 C14.182009 7.17200108 14.15814835 8.64862358 14.125 10.125 C14.11597656 10.87910156 14.10695313 11.63320313 14.09765625 12.41015625 C14.0740687 14.27357254 14.03819719 16.13682593 14 18 C12.35 18 10.7 18 9 18 C9 13.71 9 9.42 9 5 C8.01 5 7.02 5 6 5 C5.67 9.29 5.34 13.58 5 18 C3.35 18 1.7 18 0 18 C0 12.06 0 6.12 0 0 Z " fill="#FFFFFF" transform="translate(83,16)"/>
<path d="M0 0 C1.875 1 1.875 1 3 3 C4.08670189 7.73491539 4.43797883 9.90505292 2.625 14.4375 C1 17 1 17 0 18 C-5.79588336 18.46740995 -5.79588336 18.46740995 -8 18 C-10.12370668 15.90505684 -10.91026852 14.50443646 -11.43359375 11.5625 C-11.44398492 4.74589466 -11.44398492 4.74589466 -9.4375 1.375 C-6.08032602 -0.51879045 -3.79170715 -0.48258091 0 0 Z M-5 4 C-6.38908639 5.17110184 -6.38908639 5.17110184 -6.25 8.4375 C-6.1675 9.613125 -6.085 10.78875 -6 12 C-4.515 12.99 -4.515 12.99 -3 14 C-1.17339803 9.87851657 -1.17339803 9.87851657 -1.875 5.625 C-2.24625 5.08875 -2.6175 4.5525 -3 4 C-3.66 4 -4.32 4 -5 4 Z " fill="#FFFFFF" transform="translate(150,16)"/>
<path d="M0 0 C3.625 0.3125 3.625 0.3125 5.5625 1.875 C6.97407805 5.11332611 6.82645347 7.82063979 6.625 11.3125 C3.985 11.3125 1.345 11.3125 -1.375 11.3125 C-1.375 11.9725 -1.375 12.6325 -1.375 13.3125 C0.935 13.3125 3.245 13.3125 5.625 13.3125 C6.1875 15.25 6.1875 15.25 6.625 17.3125 C5.04577594 18.89172406 3.43056126 18.520159 1.25 18.5625 C0.45851562 18.58828125 -0.33296875 18.6140625 -1.1484375 18.640625 C-3.90637865 18.23419157 -4.7197295 17.51952733 -6.375 15.3125 C-7.93846038 9.50536144 -7.04386051 6.44492406 -4.375 1.3125 C-3.375 0.3125 -3.375 0.3125 0 0 Z M-0.375 4.3125 C-0.705 5.3025 -1.035 6.2925 -1.375 7.3125 C-0.055 6.9825 1.265 6.6525 2.625 6.3125 C2.295 5.6525 1.965 4.9925 1.625 4.3125 C0.965 4.3125 0.305 4.3125 -0.375 4.3125 Z " fill="#FFFFFF" transform="translate(211.375,15.6875)"/>
<path d="M0 0 C3.625 0.3125 3.625 0.3125 5.5625 1.875 C6.97407805 5.11332611 6.82645347 7.82063979 6.625 11.3125 C3.985 11.3125 1.345 11.3125 -1.375 11.3125 C-1.375 11.9725 -1.375 12.6325 -1.375 13.3125 C0.935 13.3125 3.245 13.3125 5.625 13.3125 C6.1875 15.25 6.1875 15.25 6.625 17.3125 C5.04577594 18.89172406 3.43056126 18.520159 1.25 18.5625 C0.45851562 18.58828125 -0.33296875 18.6140625 -1.1484375 18.640625 C-3.90637865 18.23419157 -4.7197295 17.51952733 -6.375 15.3125 C-7.93846038 9.50536144 -7.04386051 6.44492406 -4.375 1.3125 C-3.375 0.3125 -3.375 0.3125 0 0 Z M-0.375 4.3125 C-0.705 5.3025 -1.035 6.2925 -1.375 7.3125 C-0.055 6.9825 1.265 6.6525 2.625 6.3125 C2.295 5.6525 1.965 4.9925 1.625 4.3125 C0.965 4.3125 0.305 4.3125 -0.375 4.3125 Z " fill="#FFFFFF" transform="translate(189.375,15.6875)"/>
<path d="M0 0 C3.5 0.5 3.5 0.5 5.4375 2.0625 C6.84907805 5.30082611 6.70145347 8.00813979 6.5 11.5 C3.86 11.5 1.22 11.5 -1.5 11.5 C-1.5 12.16 -1.5 12.82 -1.5 13.5 C0.81 13.5 3.12 13.5 5.5 13.5 C6.0625 15.4375 6.0625 15.4375 6.5 17.5 C4.92102167 19.07897833 3.30637428 18.74543509 1.125 18.8125 C-0.06222656 18.86857422 -0.06222656 18.86857422 -1.2734375 18.92578125 C-3.5 18.5 -3.5 18.5 -5.265625 16.79296875 C-6.68981579 14.14739915 -6.90234586 12.48981434 -6.875 9.5 C-6.88273437 8.654375 -6.89046875 7.80875 -6.8984375 6.9375 C-6.14418512 2.32325014 -4.60158513 0.6573693 0 0 Z M-0.5 4.5 C-0.83 5.49 -1.16 6.48 -1.5 7.5 C-0.18 7.17 1.14 6.84 2.5 6.5 C2.17 5.84 1.84 5.18 1.5 4.5 C0.84 4.5 0.18 4.5 -0.5 4.5 Z " fill="#FFFFFF" transform="translate(74.5,15.5)"/>
<path d="M0 0 C2.01822917 0.06510417 4.03645833 0.13020833 6.0546875 0.1953125 C5.7246875 1.8453125 5.3946875 3.4953125 5.0546875 5.1953125 C3.7346875 4.8653125 2.4146875 4.5353125 1.0546875 4.1953125 C1.72177734 4.86626953 1.72177734 4.86626953 2.40234375 5.55078125 C7.0546875 10.52105282 7.0546875 10.52105282 7.0546875 14.0078125 C6.0546875 16.1953125 6.0546875 16.1953125 4.0546875 18.1953125 C1.36629365 18.46523156 -1.23673186 18.28268607 -3.9453125 18.1953125 C-4.2753125 17.5353125 -4.6053125 16.8753125 -4.9453125 16.1953125 C-4.6153125 15.2053125 -4.2853125 14.2153125 -3.9453125 13.1953125 C-2.2953125 13.5253125 -0.6453125 13.8553125 1.0546875 14.1953125 C0.2296875 13.5146875 -0.5953125 12.8340625 -1.4453125 12.1328125 C-3.9453125 9.1953125 -3.9453125 9.1953125 -4.3828125 5.5078125 C-3.93137726 2.08980285 -3.68213957 0.36969273 0 0 Z " fill="#FFFFFF" transform="translate(119.9453125,15.8046875)"/>
<path d="M0 0 C1.32 0 2.64 0 4 0 C4 1.65 4 3.3 4 5 C4.99 5 5.98 5 7 5 C7 6.32 7 7.64 7 9 C6.01 9 5.02 9 4 9 C4 11.97 4 14.94 4 18 C4.99 18 5.98 18 7 18 C7 19.65 7 21.3 7 23 C4.69 23 2.38 23 0 23 C-1.38226016 20.23547967 -1.09525387 17.9538637 -1.0625 14.875 C-1.05347656 13.77929688 -1.04445312 12.68359375 -1.03515625 11.5546875 C-1.02355469 10.71164063 -1.01195312 9.86859375 -1 9 C-1.66 9 -2.32 9 -3 9 C-3 7.68 -3 6.36 -3 5 C-2.34 5 -1.68 5 -1 5 C-0.67 3.35 -0.34 1.7 0 0 Z " fill="#FFFFFF" transform="translate(174,11)"/>
<path d="M0 0 C2.97 0 5.94 0 9 0 C9 1.98 9 3.96 9 6 C7.68 6 6.36 6 5 6 C5 9.96 5 13.92 5 18 C3.35 18 1.7 18 0 18 C0 12.06 0 6.12 0 0 Z " fill="#FFFFFF" transform="translate(129,16)"/>
<path d="M0 0 C5.94 0 11.88 0 18 0 C18 0.99 18 1.98 18 3 C12.06 3.33 6.12 3.66 0 4 C0 2.68 0 1.36 0 0 Z " fill="#4385E6" transform="translate(19,14)"/>
<path d="M0 0 C5.94 0 11.88 0 18 0 C18 0.99 18 1.98 18 3 C12.06 3 6.12 3 0 3 C0 2.01 0 1.02 0 0 Z " fill="#2470E1" transform="translate(19,23)"/>
<path d="M0 0 C2.97 0 5.94 0 9 0 C9 1.32 9 2.64 9 4 C6.03 4 3.06 4 0 4 C0 2.68 0 1.36 0 0 Z " fill="#4F8DE7" transform="translate(20,31)"/>
<path d="M0 0 C2.0625 0.4375 2.0625 0.4375 4 1 C4 2.98 4 4.96 4 7 C2.35 7 0.7 7 -1 7 C-1.04254356 5.00045254 -1.04080783 2.99958364 -1 1 C-0.67 0.67 -0.34 0.34 0 0 Z " fill="#FFFFFF" transform="translate(198,27)"/>
</svg>
