<svg width="56" height="56" viewBox="0 0 56 56" fill="none" xmlns="http://www.w3.org/2000/svg">
<rect width="56" height="56" fill="white"/>
<rect x="3" y="3" width="25" height="25" rx="1.13636" fill="#D1E1FA"/>
<rect x="5.27246" y="5.27246" width="20.4545" height="10.2273" rx="1.13636" fill="#1768E0"/>
<rect opacity="0.5" x="5.08301" y="17.583" width="18.75" height="2.08333" rx="1.04167" fill="#1768E0"/>
<rect opacity="0.5" x="5.08301" y="20.708" width="16.6667" height="2.08333" rx="1.04167" fill="#1768E0"/>
<rect opacity="0.2" x="5.08301" y="24.875" width="6.25" height="1.04167" rx="0.520833" fill="#1C2126"/>
<rect opacity="0.2" x="13.417" y="24.875" width="4.16667" height="1.04167" rx="0.520833" fill="#1C2126"/>
<path fill-rule="evenodd" clip-rule="evenodd" d="M8.75536 7.17043C8.84587 6.94319 9.15413 6.94319 9.24464 7.17043L9.66493 8.22571L10.7558 8.31705C10.9908 8.33671 11.086 8.64288 10.907 8.80299L10.0759 9.54652L10.3298 10.6582C10.3845 10.8976 10.1351 11.0869 9.93398 10.9586L9 10.3628L8.06602 10.9586C7.8649 11.0869 7.61551 10.8976 7.67019 10.6582L7.92413 9.54652L7.09296 8.80299C6.91398 8.64288 7.00923 8.33671 7.24415 8.31705L8.33507 8.22571L8.75536 7.17043Z" fill="white"/>
<rect x="28" y="31" width="22" height="22" rx="1" fill="#D7DCE0"/>
<rect x="30" y="33" width="18" height="9" rx="1" fill="#8C9299"/>
<rect opacity="0.2" x="30" y="44" width="18" height="2" rx="1" fill="#1C2126"/>
<rect opacity="0.2" x="30" y="47" width="16" height="2" rx="1" fill="#1C2126"/>
<rect opacity="0.2" x="30" y="51" width="6" height="1" rx="0.5" fill="#1C2126"/>
<rect opacity="0.2" x="38" y="51" width="4" height="1" rx="0.5" fill="#1C2126"/>
<rect x="31" y="6" width="22" height="22" rx="1" fill="#D7DCE0"/>
<rect x="33" y="8" width="18" height="9" rx="1" fill="#8C9299"/>
<rect opacity="0.2" x="33" y="19" width="18" height="2" rx="1" fill="#1C2126"/>
<rect opacity="0.2" x="33" y="22" width="16" height="2" rx="1" fill="#1C2126"/>
<rect opacity="0.2" x="33" y="26" width="6" height="1" rx="0.5" fill="#1C2126"/>
<rect opacity="0.2" x="41" y="26" width="4" height="1" rx="0.5" fill="#1C2126"/>
<rect x="3" y="31" width="22" height="22" rx="1" fill="#D7DCE0"/>
<rect x="5" y="33" width="18" height="9" rx="1" fill="#8C9299"/>
<rect opacity="0.2" x="5" y="44" width="18" height="2" rx="1" fill="#1C2126"/>
<rect opacity="0.2" x="5" y="47" width="16" height="2" rx="1" fill="#1C2126"/>
<rect opacity="0.2" x="5" y="51" width="6" height="1" rx="0.5" fill="#1C2126"/>
<rect opacity="0.2" x="13" y="51" width="4" height="1" rx="0.5" fill="#1C2126"/>
</svg>
