<svg width="56" height="56" viewBox="0 0 56 56" fill="none" xmlns="http://www.w3.org/2000/svg">
<rect width="56" height="56" fill="white"/>
<rect x="28" y="3" width="25" height="25" rx="1.13636" fill="#FAE0CE"/>
<rect x="30.2725" y="5.27246" width="20.4545" height="10.2273" rx="1.13636" fill="#E5620B"/>
<rect opacity="0.5" x="30.083" y="17.583" width="18.75" height="2.08333" rx="1.04167" fill="#E5620B"/>
<rect opacity="0.5" x="30.083" y="20.708" width="16.6667" height="2.08333" rx="1.04167" fill="#E5620B"/>
<rect opacity="0.2" x="30.083" y="24.875" width="6.25" height="1.04167" rx="0.520833" fill="#1C2126"/>
<rect opacity="0.2" x="38.417" y="24.875" width="4.16667" height="1.04167" rx="0.520833" fill="#1C2126"/>
<rect x="28" y="31" width="22" height="22" rx="1" fill="#D7DCE0"/>
<rect x="30" y="33" width="18" height="9" rx="1" fill="#8C9299"/>
<rect opacity="0.2" x="30" y="44" width="18" height="2" rx="1" fill="#1C2126"/>
<rect opacity="0.2" x="30" y="47" width="16" height="2" rx="1" fill="#1C2126"/>
<rect opacity="0.2" x="30" y="51" width="6" height="1" rx="0.5" fill="#1C2126"/>
<rect opacity="0.2" x="38" y="51" width="4" height="1" rx="0.5" fill="#1C2126"/>
<rect x="3" y="6" width="22" height="22" rx="1" fill="#D7DCE0"/>
<rect x="5" y="8" width="18" height="9" rx="1" fill="#8C9299"/>
<rect opacity="0.2" x="5" y="19" width="18" height="2" rx="1" fill="#1C2126"/>
<rect opacity="0.2" x="5" y="22" width="16" height="2" rx="1" fill="#1C2126"/>
<rect opacity="0.2" x="5" y="26" width="6" height="1" rx="0.5" fill="#1C2126"/>
<rect opacity="0.2" x="13" y="26" width="4" height="1" rx="0.5" fill="#1C2126"/>
<rect x="3" y="31" width="22" height="22" rx="1" fill="#D7DCE0"/>
<rect x="5" y="33" width="18" height="9" rx="1" fill="#8C9299"/>
<rect opacity="0.2" x="5" y="44" width="18" height="2" rx="1" fill="#1C2126"/>
<rect opacity="0.2" x="5" y="47" width="16" height="2" rx="1" fill="#1C2126"/>
<rect opacity="0.2" x="5" y="51" width="6" height="1" rx="0.5" fill="#1C2126"/>
<rect opacity="0.2" x="13" y="51" width="4" height="1" rx="0.5" fill="#1C2126"/>
</svg>
