<svg width="56" height="56" viewBox="0 0 56 56" fill="none" xmlns="http://www.w3.org/2000/svg">
<rect width="56" height="56" fill="white"/>
<rect x="5" y="3" width="47" height="25" rx="1.13636" fill="#D1E1FA"/>
<rect x="7.27246" y="5.27246" width="42.4545" height="10.2273" rx="1.13636" fill="#1768E0"/>
<rect opacity="0.5" x="7.08301" y="17.583" width="40.75" height="2.08333" rx="1.04167" fill="#1768E0"/>
<rect opacity="0.5" x="7.08301" y="20.708" width="38.6667" height="2.08333" rx="1.04167" fill="#1768E0"/>
<rect opacity="0.2" x="7.08301" y="24.875" width="28.25" height="1.04167" rx="0.520833" fill="#1C2126"/>
<rect opacity="0.2" x="15.417" y="24.875" width="26.1667" height="1.04167" rx="0.520833" fill="#1C2126"/>
<rect x="30" y="31" width="22" height="22" rx="1" fill="#D7DCE0"/>
<rect x="32" y="33" width="18" height="9" rx="1" fill="#8C9299"/>
<rect opacity="0.2" x="32" y="44" width="18" height="2" rx="1" fill="#1C2126"/>
<rect opacity="0.2" x="32" y="47" width="16" height="2" rx="1" fill="#1C2126"/>
<rect opacity="0.2" x="32" y="51" width="6" height="1" rx="0.5" fill="#1C2126"/>
<rect opacity="0.2" x="40" y="51" width="4" height="1" rx="0.5" fill="#1C2126"/>
<rect x="5" y="31" width="22" height="22" rx="1" fill="#D7DCE0"/>
<rect x="7" y="33" width="18" height="9" rx="1" fill="#8C9299"/>
<rect opacity="0.2" x="7" y="44" width="18" height="2" rx="1" fill="#1C2126"/>
<rect opacity="0.2" x="7" y="47" width="16" height="2" rx="1" fill="#1C2126"/>
<rect opacity="0.2" x="7" y="51" width="6" height="1" rx="0.5" fill="#1C2126"/>
<rect opacity="0.2" x="15" y="51" width="4" height="1" rx="0.5" fill="#1C2126"/>
</svg>
