<svg width="56" height="56" viewBox="0 0 56 56" fill="none" xmlns="http://www.w3.org/2000/svg">
<rect width="56" height="56" fill="white"/>
<g clip-path="url(#clip0_1482_6550)">
<rect x="3" y="28" width="25" height="25" rx="1.13636" fill="#FAEAEA"/>
<rect opacity="0.4" x="5.27246" y="30.2725" width="20.4545" height="10.2273" rx="1.13636" fill="#1C2126"/>
<rect opacity="0.2" x="5.08301" y="42.583" width="18.75" height="2.08333" rx="1.04167" fill="#1C2126"/>
<rect opacity="0.2" x="5.08301" y="45.708" width="16.6667" height="2.08333" rx="1.04167" fill="#1C2126"/>
<rect opacity="0.2" x="5.08301" y="49.875" width="6.25" height="1.04167" rx="0.520833" fill="#1C2126"/>
<rect opacity="0.2" x="13.417" y="49.875" width="4.16667" height="1.04167" rx="0.520833" fill="#1C2126"/>
<rect x="-2.68164" y="38.3896" width="22.7273" height="6.01942" transform="rotate(-45 -2.68164 38.3896)" fill="#CD2A2A"/>
</g>
<rect x="31" y="28" width="22" height="22" rx="1" fill="#D7DCE0"/>
<rect x="33" y="30" width="18" height="9" rx="1" fill="#8C9299"/>
<rect opacity="0.2" x="33" y="41" width="18" height="2" rx="1" fill="#1C2126"/>
<rect opacity="0.2" x="33" y="44" width="16" height="2" rx="1" fill="#1C2126"/>
<rect opacity="0.2" x="33" y="48" width="6" height="1" rx="0.5" fill="#1C2126"/>
<rect opacity="0.2" x="41" y="48" width="4" height="1" rx="0.5" fill="#1C2126"/>
<rect x="31" y="3" width="22" height="22" rx="1" fill="#D7DCE0"/>
<rect x="33" y="5" width="18" height="9" rx="1" fill="#8C9299"/>
<rect opacity="0.2" x="33" y="16" width="18" height="2" rx="1" fill="#1C2126"/>
<rect opacity="0.2" x="33" y="19" width="16" height="2" rx="1" fill="#1C2126"/>
<rect opacity="0.2" x="33" y="23" width="6" height="1" rx="0.5" fill="#1C2126"/>
<rect opacity="0.2" x="41" y="23" width="4" height="1" rx="0.5" fill="#1C2126"/>
<rect x="6" y="3" width="22" height="22" rx="1" fill="#D7DCE0"/>
<rect x="8" y="5" width="18" height="9" rx="1" fill="#8C9299"/>
<rect opacity="0.2" x="8" y="16" width="18" height="2" rx="1" fill="#1C2126"/>
<rect opacity="0.2" x="8" y="19" width="16" height="2" rx="1" fill="#1C2126"/>
<rect opacity="0.2" x="8" y="23" width="6" height="1" rx="0.5" fill="#1C2126"/>
<rect opacity="0.2" x="16" y="23" width="4" height="1" rx="0.5" fill="#1C2126"/>
<defs>
<clipPath id="clip0_1482_6550">
<rect x="3" y="28" width="25" height="25" rx="1.13636" fill="white"/>
</clipPath>
</defs>
</svg>
