<svg width="209" height="48" viewBox="0 0 209 48" fill="none" xmlns="http://www.w3.org/2000/svg">
<path fill-rule="evenodd" clip-rule="evenodd" d="M5.15471 8.92286C5.27588 7.19011 6.48346 5.79255 8.06533 5.34921C7.63511 6.37977 7.41491 7.51735 7.45644 8.70651L8.57322 40.687C8.63514 42.4601 9.26956 44.0783 10.2926 45.3701L6.63374 45.1142C4.42998 44.9601 2.7684 43.0487 2.92251 40.8449L5.15471 8.92286Z" fill="white"/>
<path fill-rule="evenodd" clip-rule="evenodd" d="M15.3121 4.42975C13.1043 4.50685 11.377 6.35912 11.4541 8.56691L12.5709 40.5474C12.648 42.7552 14.5003 44.4825 16.7081 44.4054L40.6935 43.5678C42.9013 43.4907 44.6285 41.6384 44.5514 39.4306L43.4346 7.45013C43.3576 5.24234 41.5053 3.51507 39.2975 3.59217L15.3121 4.42975ZM19.6059 14.7849C18.778 14.8138 18.1303 15.5084 18.1592 16.3364C18.1881 17.1643 18.8827 17.812 19.7106 17.7831L35.7009 17.2247C36.5288 17.1958 37.1765 16.5012 37.1476 15.6733C37.1187 14.8453 36.4241 14.1976 35.5962 14.2265L19.6059 14.7849ZM19.9553 23.3435C19.1274 23.3724 18.4796 24.067 18.5085 24.895C18.5375 25.7229 19.2321 26.3706 20.06 26.3417L36.0502 25.7833C36.8782 25.7544 37.5259 25.0598 37.497 24.2319C37.4681 23.4039 36.7735 22.7562 35.9455 22.7851L19.9553 23.3435ZM18.8586 33.1743C18.8297 32.3463 19.4775 31.6517 20.3054 31.6228L28.3005 31.3436C29.1284 31.3147 29.823 31.9624 29.8519 32.7904C29.8809 33.6183 29.2331 34.3129 28.4052 34.3418L20.4101 34.621C19.5822 34.6499 18.8876 34.0022 18.8586 33.1743Z" fill="white"/>
<path d="M58.2 37L68.88 9.56H75.44L86.16 37H80.52L78.32 31.16H65.76L63.56 37H58.2ZM67.4 26.76H76.64L73.88 19.32C73.7733 19.0533 73.64 18.72 73.48 18.32C73.3467 17.8933 73.2 17.44 73.04 16.96C72.88 16.4533 72.72 15.9467 72.56 15.44C72.4 14.9333 72.2533 14.48 72.12 14.08H71.92C71.76 14.6133 71.56 15.2267 71.32 15.92C71.1067 16.6133 70.8933 17.2667 70.68 17.88C70.4667 18.4933 70.2933 18.9733 70.16 19.32L67.4 26.76ZM94.6794 37.48C92.9727 37.48 91.4927 37.0933 90.2394 36.32C88.986 35.5467 88.0127 34.3467 87.3194 32.72C86.6527 31.0933 86.3194 29 86.3194 26.44C86.3194 23.9067 86.666 21.84 87.3594 20.24C88.0527 18.6133 89.0127 17.4133 90.2394 16.64C91.466 15.8667 92.8527 15.48 94.3994 15.48C95.3594 15.48 96.2394 15.5867 97.0394 15.8C97.8394 16.0133 98.546 16.3467 99.1594 16.8C99.7727 17.2267 100.293 17.76 100.719 18.4H100.959V8.08H105.839V37H101.799L101.399 34.2H101.119C100.453 35.2933 99.546 36.12 98.3994 36.68C97.2794 37.2133 96.0394 37.48 94.6794 37.48ZM96.1994 33.28C97.3194 33.28 98.226 33.0267 98.9194 32.52C99.6127 32.0133 100.119 31.28 100.439 30.32C100.786 29.36 100.959 28.1867 100.959 26.8V26.28C100.959 25.24 100.866 24.3067 100.679 23.48C100.493 22.6533 100.199 21.96 99.7994 21.4C99.426 20.84 98.9327 20.4133 98.3194 20.12C97.7327 19.8267 97.026 19.68 96.1994 19.68C94.9994 19.68 94.0394 19.92 93.3194 20.4C92.626 20.8533 92.1194 21.5733 91.7994 22.56C91.506 23.52 91.3594 24.7467 91.3594 26.24V26.8C91.3594 28.2667 91.506 29.48 91.7994 30.44C92.1194 31.4 92.626 32.12 93.3194 32.6C94.0394 33.0533 94.9994 33.28 96.1994 33.28ZM109.431 37V8.08H114.311V37H109.431ZM117.909 12.72V8.08H122.789V12.72H117.909ZM117.909 37V15.96H122.789V37H117.909ZM134.587 37.48C133.067 37.48 131.734 37.32 130.587 37C129.441 36.6533 128.481 36.1867 127.707 35.6C126.934 35.0133 126.347 34.3333 125.947 33.56C125.574 32.76 125.387 31.8933 125.387 30.96C125.387 30.8267 125.387 30.7067 125.387 30.6C125.414 30.4933 125.427 30.4133 125.427 30.36H130.227C130.227 30.4133 130.227 30.4667 130.227 30.52C130.227 30.5733 130.227 30.6267 130.227 30.68C130.254 31.4 130.481 31.9867 130.907 32.44C131.334 32.8667 131.894 33.1733 132.587 33.36C133.281 33.5467 134.014 33.64 134.787 33.64C135.481 33.64 136.134 33.5733 136.747 33.44C137.387 33.28 137.907 33.04 138.307 32.72C138.734 32.3733 138.947 31.9333 138.947 31.4C138.947 30.7067 138.681 30.1733 138.147 29.8C137.614 29.4267 136.907 29.12 136.027 28.88C135.174 28.64 134.254 28.3867 133.267 28.12C132.387 27.88 131.507 27.6133 130.627 27.32C129.747 27.0267 128.947 26.6533 128.227 26.2C127.534 25.7467 126.961 25.16 126.507 24.44C126.081 23.72 125.867 22.8267 125.867 21.76C125.867 20.72 126.094 19.8133 126.547 19.04C127.001 18.2667 127.627 17.6267 128.427 17.12C129.227 16.5867 130.174 16.1867 131.267 15.92C132.361 15.6533 133.547 15.52 134.827 15.52C136.081 15.52 137.214 15.6533 138.227 15.92C139.267 16.1867 140.161 16.5733 140.907 17.08C141.681 17.56 142.267 18.16 142.667 18.88C143.094 19.5733 143.307 20.3467 143.307 21.2C143.307 21.3867 143.294 21.5733 143.267 21.76C143.267 21.9467 143.267 22.0533 143.267 22.08H138.507V21.8C138.507 21.2933 138.347 20.8667 138.027 20.52C137.734 20.1467 137.294 19.8533 136.707 19.64C136.147 19.4267 135.441 19.32 134.587 19.32C133.947 19.32 133.387 19.3733 132.907 19.48C132.427 19.5867 132.027 19.7333 131.707 19.92C131.414 20.1067 131.187 20.32 131.027 20.56C130.867 20.8 130.787 21.0667 130.787 21.36C130.787 21.8667 130.987 22.2667 131.387 22.56C131.787 22.8533 132.321 23.1067 132.987 23.32C133.681 23.5333 134.427 23.76 135.227 24C136.187 24.2667 137.174 24.5467 138.187 24.84C139.201 25.1067 140.134 25.4533 140.987 25.88C141.867 26.3067 142.574 26.9067 143.107 27.68C143.641 28.4533 143.907 29.48 143.907 30.76C143.907 31.9867 143.667 33.04 143.187 33.92C142.734 34.7733 142.081 35.4667 141.227 36C140.401 36.5067 139.414 36.88 138.267 37.12C137.147 37.36 135.921 37.48 134.587 37.48ZM151.988 37.48C150.681 37.48 149.655 37.2267 148.908 36.72C148.161 36.1867 147.628 35.52 147.308 34.72C147.015 33.8933 146.868 33.0533 146.868 32.2V19.96H144.348V15.96H146.988L147.868 10.08H151.748V15.96H155.388V19.96H151.748V31.72C151.748 32.28 151.895 32.72 152.188 33.04C152.481 33.3333 152.921 33.48 153.508 33.48H155.388V36.84C155.121 36.9467 154.788 37.04 154.388 37.12C154.015 37.2267 153.615 37.3067 153.188 37.36C152.761 37.44 152.361 37.48 151.988 37.48ZM157.406 12.72V8.08H162.286V12.72H157.406ZM157.406 37V15.96H162.286V37H157.406ZM165.884 37V15.96H169.964L170.364 18.76H170.644C171.124 18.12 171.684 17.56 172.324 17.08C172.991 16.5733 173.738 16.1867 174.564 15.92C175.418 15.6267 176.351 15.48 177.364 15.48C178.698 15.48 179.871 15.72 180.884 16.2C181.924 16.68 182.738 17.4533 183.324 18.52C183.911 19.5867 184.204 21.0133 184.204 22.8V37H179.284V23.68C179.284 22.9333 179.191 22.32 179.004 21.84C178.844 21.3333 178.591 20.9333 178.244 20.64C177.924 20.32 177.524 20.0933 177.044 19.96C176.564 19.8267 176.031 19.76 175.444 19.76C174.564 19.76 173.764 19.9733 173.044 20.4C172.351 20.8267 171.791 21.4133 171.364 22.16C170.964 22.9067 170.764 23.7733 170.764 24.76V37H165.884ZM191.124 44.28C190.19 44.28 189.31 44.0933 188.484 43.72C187.657 43.3467 186.99 42.7867 186.484 42.04C185.977 41.32 185.724 40.4267 185.724 39.36C185.724 38.1867 186.057 37.2667 186.724 36.6C187.417 35.9067 188.177 35.3867 189.004 35.04C188.39 34.72 187.884 34.2933 187.484 33.76C187.11 33.2267 186.924 32.5867 186.924 31.84C186.924 30.8267 187.297 30.0267 188.044 29.44C188.79 28.8267 189.644 28.4267 190.604 28.24C189.617 27.6267 188.857 26.84 188.324 25.88C187.817 24.92 187.564 23.8267 187.564 22.6C187.564 21.1333 187.91 19.88 188.604 18.84C189.324 17.7733 190.364 16.9467 191.724 16.36C193.084 15.7733 194.724 15.48 196.644 15.48C197.417 15.48 198.164 15.5333 198.884 15.64C199.604 15.7467 200.257 15.9067 200.844 16.12C201.777 15.56 202.417 14.9333 202.764 14.24C203.11 13.52 203.297 12.9333 203.324 12.48H208.084C208.084 13.4133 207.897 14.24 207.524 14.96C207.177 15.68 206.684 16.28 206.044 16.76C205.404 17.2133 204.63 17.5467 203.724 17.76C204.39 18.3467 204.897 19.0533 205.244 19.88C205.59 20.7067 205.764 21.6133 205.764 22.6C205.764 24.0667 205.417 25.3333 204.724 26.4C204.057 27.4667 203.057 28.2933 201.724 28.88C200.417 29.4667 198.804 29.76 196.884 29.76H193.644C193.084 29.76 192.644 29.88 192.324 30.12C192.03 30.36 191.884 30.6933 191.884 31.12C191.884 31.4667 192.017 31.7733 192.284 32.04C192.577 32.3067 192.977 32.44 193.484 32.44H202.684C204.257 32.44 205.55 32.96 206.564 34C207.604 35.0133 208.124 36.32 208.124 37.92C208.124 39.12 207.804 40.2 207.164 41.16C206.55 42.12 205.684 42.88 204.564 43.44C203.444 44 202.137 44.28 200.644 44.28H191.124ZM192.884 40.76H200.604C201.11 40.76 201.55 40.6667 201.924 40.48C202.324 40.32 202.63 40.08 202.844 39.76C203.084 39.44 203.204 39.08 203.204 38.68C203.204 37.9867 202.977 37.4667 202.524 37.12C202.097 36.7733 201.564 36.6 200.924 36.6H192.884C192.244 36.6 191.71 36.7867 191.284 37.16C190.857 37.56 190.644 38.0667 190.644 38.68C190.644 39.2933 190.844 39.7867 191.244 40.16C191.67 40.56 192.217 40.76 192.884 40.76ZM196.684 26.32C198.097 26.32 199.15 26 199.844 25.36C200.564 24.6933 200.924 23.7733 200.924 22.6C200.924 21.4267 200.564 20.52 199.844 19.88C199.15 19.24 198.097 18.92 196.684 18.92C195.27 18.92 194.204 19.24 193.484 19.88C192.79 20.52 192.444 21.4267 192.444 22.6C192.444 23.3733 192.59 24.04 192.884 24.6C193.204 25.16 193.67 25.5867 194.284 25.88C194.924 26.1733 195.724 26.32 196.684 26.32Z" fill="white"/>
</svg>
